if (_typeface_js && _typeface_js.loadFace) _typeface_js.loadFace({"glyphs":{"0":{"ha":781,"x_min":0,"x_max":608,"o":"m 260 521 l 347 521 l 347 347 l 260 347 l 260 521 m 347 174 l 434 174 l 434 694 l 347 694 l 347 781 l 260 781 l 260 694 l 174 694 l 174 174 l 260 174 l 260 87 l 347 87 l 347 174 m 174 87 l 87 87 l 87 174 l 0 174 l 0 694 l 87 694 l 87 781 l 174 781 l 174 868 l 434 868 l 434 781 l 521 781 l 521 694 l 608 694 l 608 174 l 521 174 l 521 87 l 434 87 l 434 0 l 174 0 l 174 87 z "},"1":{"ha":781,"x_min":87,"x_max":608,"o":"m 87 694 l 174 694 l 174 781 l 260 781 l 260 868 l 434 868 l 434 87 l 608 87 l 608 0 l 87 0 l 87 87 l 260 87 l 260 608 l 87 608 l 87 694 z "},"2":{"ha":781,"x_min":0,"x_max":608,"o":"m 0 260 l 87 260 l 87 347 l 174 347 l 174 434 l 260 434 l 260 521 l 347 521 l 347 608 l 434 608 l 434 781 l 174 781 l 174 694 l 0 694 l 0 781 l 87 781 l 87 868 l 521 868 l 521 781 l 608 781 l 608 608 l 521 608 l 521 521 l 434 521 l 434 434 l 347 434 l 347 347 l 260 347 l 260 260 l 174 260 l 174 87 l 434 87 l 434 174 l 608 174 l 608 0 l 0 0 l 0 260 z "},"3":{"ha":781,"x_min":0,"x_max":608,"o":"m 174 521 l 434 521 l 434 781 l 174 781 l 174 694 l 0 694 l 0 781 l 87 781 l 87 868 l 521 868 l 521 781 l 608 781 l 608 521 l 521 521 l 521 434 l 608 434 l 608 87 l 521 87 l 521 0 l 87 0 l 87 87 l 0 87 l 0 174 l 174 174 l 174 87 l 434 87 l 434 434 l 174 434 l 174 521 z "},"4":{"ha":781,"x_min":0,"x_max":608,"o":"m 174 434 l 347 434 l 347 608 l 260 608 l 260 521 l 174 521 l 174 434 m 608 434 l 608 347 l 521 347 l 521 87 l 608 87 l 608 0 l 260 0 l 260 87 l 347 87 l 347 347 l 0 347 l 0 521 l 87 521 l 87 608 l 174 608 l 174 694 l 260 694 l 260 781 l 347 781 l 347 868 l 521 868 l 521 434 l 608 434 z "},"5":{"ha":781,"x_min":0,"x_max":608,"o":"m 174 521 l 521 521 l 521 434 l 608 434 l 608 87 l 521 87 l 521 0 l 87 0 l 87 87 l 0 87 l 0 174 l 174 174 l 174 87 l 434 87 l 434 434 l 0 434 l 0 868 l 608 868 l 608 781 l 174 781 l 174 521 z "},"6":{"ha":781,"x_min":0,"x_max":608,"o":"m 434 434 l 174 434 l 174 87 l 434 87 l 434 434 m 87 781 l 174 781 l 174 868 l 434 868 l 434 781 l 260 781 l 260 694 l 174 694 l 174 521 l 521 521 l 521 434 l 608 434 l 608 87 l 521 87 l 521 0 l 87 0 l 87 87 l 0 87 l 0 694 l 87 694 l 87 781 z "},"7":{"ha":781,"x_min":0,"x_max":608,"o":"m 174 347 l 260 347 l 260 434 l 347 434 l 347 521 l 434 521 l 434 781 l 174 781 l 174 694 l 0 694 l 0 868 l 608 868 l 608 521 l 521 521 l 521 434 l 434 434 l 434 347 l 347 347 l 347 0 l 174 0 l 174 347 z "},"8":{"ha":781,"x_min":0,"x_max":608,"o":"m 434 781 l 174 781 l 174 521 l 434 521 l 434 781 m 434 434 l 174 434 l 174 87 l 434 87 l 434 434 m 0 434 l 87 434 l 87 521 l 0 521 l 0 781 l 87 781 l 87 868 l 521 868 l 521 781 l 608 781 l 608 521 l 521 521 l 521 434 l 608 434 l 608 87 l 521 87 l 521 0 l 87 0 l 87 87 l 0 87 l 0 434 z "},"9":{"ha":781,"x_min":0,"x_max":608,"o":"m 87 87 l 434 87 l 434 0 l 87 0 l 87 87 m 174 521 l 434 521 l 434 781 l 174 781 l 174 521 m 347 174 l 434 174 l 434 434 l 87 434 l 87 521 l 0 521 l 0 781 l 87 781 l 87 868 l 521 868 l 521 781 l 608 781 l 608 174 l 521 174 l 521 87 l 347 87 l 347 174 z "},"\u0001":{"ha":781,"x_min":0,"x_max":694,"o":"m 434 694 l 521 694 l 521 608 l 434 608 l 434 694 m 174 694 l 260 694 l 260 608 l 174 608 l 174 694 m 174 434 l 521 434 l 521 347 l 434 347 l 434 260 l 260 260 l 260 347 l 174 347 l 174 434 m 0 781 l 87 781 l 87 87 l 608 87 l 608 0 l 87 0 l 87 87 l 0 87 l 0 781 m 608 781 l 87 781 l 87 782 l 87 868 l 608 868 l 608 781 l 694 781 l 694 87 l 608 87 l 608 781 z "},"\u0002":{"ha":781,"x_min":0,"x_max":694,"o":"m 521 608 l 521 694 l 434 694 l 434 608 l 521 608 m 260 608 l 260 694 l 174 694 l 174 608 l 260 608 m 434 260 l 434 347 l 521 347 l 521 434 l 174 434 l 174 347 l 260 347 l 260 260 l 434 260 m 0 781 l 87 781 l 87 868 l 608 868 l 608 781 l 694 781 l 694 87 l 608 87 l 608 0 l 87 0 l 87 87 l 0 87 l 0 781 z "},"\u0003":{"ha":781,"x_min":0,"x_max":608,"o":"m 174 174 l 87 174 l 87 260 l 0 260 l 0 608 l 87 608 l 87 694 l 260 694 l 260 608 l 347 608 l 347 694 l 521 694 l 521 608 l 608 608 l 608 260 l 521 260 l 521 174 l 434 174 l 434 87 l 347 87 l 347 0 l 260 0 l 260 87 l 174 87 l 174 174 z "},"\u0004":{"ha":781,"x_min":0,"x_max":608,"o":"m 521 260 l 434 260 l 434 174 l 347 174 l 347 87 l 260 87 l 260 174 l 174 174 l 174 260 l 87 260 l 87 347 l 0 347 l 0 434 l 87 434 l 87 521 l 174 521 l 174 608 l 260 608 l 260 694 l 347 694 l 347 608 l 434 608 l 434 521 l 521 521 l 521 434 l 608 434 l 608 347 l 521 347 l 521 260 z "},"\u0005":{"ha":781,"x_min":0,"x_max":694,"o":"m 434 87 l 521 87 l 521 0 l 174 0 l 174 87 l 260 87 l 260 260 l 261 260 l 434 260 l 434 87 m 260 781 l 434 781 l 434 694 l 521 694 l 521 521 l 694 521 l 694 260 l 434 260 l 434 521 l 260 521 l 260 260 l 0 260 l 0 521 l 174 521 l 174 694 l 260 694 l 260 781 z "},"\u0006":{"ha":781,"x_min":0,"x_max":694,"o":"m 0 521 l 87 521 l 87 608 l 174 608 l 174 694 l 260 694 l 260 781 l 434 781 l 434 694 l 521 694 l 521 608 l 608 608 l 608 521 l 694 521 l 694 347 l 608 347 l 608 260 l 434 260 l 434 87 l 521 87 l 521 0 l 174 0 l 174 87 l 260 87 l 260 260 l 87 260 l 87 347 l 0 347 l 0 521 z "},"\u0007":{"ha":781,"x_min":174,"x_max":521,"o":"m 174 434 l 260 434 l 260 521 l 434 521 l 434 434 l 521 434 l 521 260 l 434 260 l 434 174 l 260 174 l 260 260 l 174 260 l 174 434 z "},"\b":{"ha":781,"x_min":0,"x_max":694,"o":"m 434 174 l 434 260 l 521 260 l 521 434 l 434 434 l 434 521 l 260 521 l 260 434 l 174 434 l 174 260 l 260 260 l 260 174 l 434 174 m 0 1042 l 694 1042 l 694 -347 l 0 -347 l 0 1042 z "},"\t":{"ha":781,"x_min":87,"x_max":608,"o":"m 260 174 l 434 174 l 434 260 l 521 260 l 521 434 l 434 434 l 434 521 l 260 521 l 260 434 l 174 434 l 174 260 l 260 260 l 260 174 m 87 521 l 174 521 l 174 608 l 521 608 l 521 521 l 608 521 l 608 174 l 521 174 l 521 87 l 174 87 l 174 174 l 87 174 l 87 521 z "},"\n":{"ha":781,"x_min":0,"x_max":694,"o":"m 434 174 l 260 174 l 260 260 l 174 260 l 174 434 l 260 434 l 260 521 l 434 521 l 434 434 l 521 434 l 521 260 l 434 260 l 434 174 m 521 87 l 521 174 l 608 174 l 608 521 l 521 521 l 521 608 l 174 608 l 174 521 l 87 521 l 87 174 l 174 174 l 174 87 l 521 87 m 0 1042 l 694 1042 l 694 -347 l 0 -347 l 0 1042 z "},"\u000b":{"ha":781,"x_min":0,"x_max":608,"o":"m 347 434 l 174 434 l 174 87 l 347 87 l 347 434 m 521 694 l 434 694 l 434 608 l 347 608 l 347 521 l 434 521 l 434 434 l 521 434 l 521 87 l 434 87 l 434 0 l 87 0 l 87 87 l 0 87 l 0 434 l 87 434 l 87 521 l 174 521 l 174 608 l 260 608 l 260 694 l 347 694 l 347 781 l 260 781 l 260 868 l 608 868 l 608 521 l 521 521 l 521 694 z "},"\f":{"ha":781,"x_min":0,"x_max":521,"o":"m 347 781 l 174 781 l 174 434 l 347 434 l 347 781 m 0 260 l 174 260 l 174 347 l 87 347 l 87 434 l 0 434 l 0 781 l 87 781 l 87 868 l 434 868 l 434 781 l 521 781 l 521 434 l 434 434 l 434 347 l 347 347 l 347 260 l 521 260 l 521 174 l 347 174 l 347 0 l 174 0 l 174 174 l 0 174 l 0 260 z "},"\r":{"ha":781,"x_min":0,"x_max":694,"o":"m 347 694 l 521 694 l 521 781 l 347 781 l 347 694 m 347 608 l 347 87 l 260 87 l 260 0 l 0 0 l 0 174 l 87 174 l 87 260 l 174 260 l 174 868 l 694 868 l 694 608 l 347 608 z "},"\u000e":{"ha":781,"x_min":0,"x_max":694,"o":"m 260 694 l 521 694 l 521 781 l 260 781 l 260 694 m 434 347 l 521 347 l 521 608 l 260 608 l 260 87 l 174 87 l 174 0 l 0 0 l 0 260 l 87 260 l 87 868 l 694 868 l 694 174 l 608 174 l 608 87 l 434 87 l 434 347 z "},"\u000f":{"ha":781,"x_min":0,"x_max":694,"o":"m 0 260 l 174 260 l 174 174 l 0 174 l 0 260 m 260 347 l 434 347 l 434 434 l 260 434 l 260 347 m 521 608 l 694 608 l 694 521 l 521 521 l 521 608 m 521 260 l 434 260 l 434 0 l 260 0 l 260 260 l 174 260 l 174 347 l 0 347 l 0 434 l 174 434 l 174 521 l 0 521 l 0 608 l 174 608 l 174 521 l 260 521 l 260 781 l 434 781 l 434 521 l 521 521 l 521 434 l 694 434 l 694 347 l 521 347 l 521 260 l 694 260 l 694 174 l 521 174 l 521 260 z "},"\u0010":{"ha":781,"x_min":0,"x_max":608,"o":"m 434 347 l 347 347 l 347 260 l 260 260 l 260 174 l 174 174 l 174 87 l 87 87 l 87 0 l 0 0 l 0 955 l 87 955 l 87 868 l 174 868 l 174 781 l 260 781 l 260 694 l 347 694 l 347 608 l 434 608 l 434 521 l 608 521 l 608 434 l 434 434 l 434 347 z "},"\u0011":{"ha":781,"x_min":0,"x_max":608,"o":"m 0 521 l 174 521 l 174 608 l 260 608 l 260 694 l 347 694 l 347 781 l 434 781 l 434 868 l 521 868 l 521 955 l 608 955 l 608 0 l 521 0 l 521 87 l 434 87 l 434 174 l 347 174 l 347 260 l 260 260 l 260 347 l 174 347 l 174 434 l 0 434 l 0 521 z "},"\u0012":{"ha":781,"x_min":87,"x_max":608,"o":"m 260 174 l 174 174 l 174 260 l 87 260 l 87 347 l 260 347 l 260 608 l 87 608 l 87 694 l 174 694 l 174 781 l 260 781 l 260 868 l 434 868 l 434 781 l 521 781 l 521 694 l 608 694 l 608 608 l 434 608 l 434 347 l 608 347 l 608 260 l 521 260 l 521 174 l 434 174 l 434 87 l 260 87 l 260 174 z "},"\u0013":{"ha":781,"x_min":87,"x_max":608,"o":"m 434 174 l 608 174 l 608 0 l 434 0 l 434 174 m 87 174 l 260 174 l 260 0 l 87 0 l 87 174 m 434 868 l 608 868 l 608 260 l 434 260 l 434 868 m 87 868 l 260 868 l 260 260 l 87 260 l 87 868 z "},"\u0014":{"ha":781,"x_min":0,"x_max":694,"o":"m 174 521 l 260 521 l 260 781 l 174 781 l 174 521 m 0 781 l 87 781 l 87 868 l 694 868 l 694 0 l 521 0 l 521 781 l 434 781 l 434 0 l 260 0 l 260 434 l 87 434 l 87 521 l 0 521 l 0 781 z "},"\u0015":{"ha":781,"x_min":0,"x_max":608,"o":"m 347 347 l 434 347 l 434 521 l 347 521 l 347 608 l 260 608 l 260 521 l 174 521 l 174 347 l 260 347 l 260 260 l 347 260 l 347 347 m 0 87 l 174 87 l 174 0 l 434 0 l 434 87 l 347 87 l 347 174 l 174 174 l 174 260 l 87 260 l 87 347 l 0 347 l 0 521 l 87 521 l 87 608 l 174 608 l 174 694 l 87 694 l 87 781 l 0 781 l 0 868 l 87 868 l 87 955 l 521 955 l 521 868 l 608 868 l 608 781 l 434 781 l 434 868 l 174 868 l 174 781 l 260 781 l 260 694 l 434 694 l 434 608 l 521 608 l 521 521 l 608 521 l 608 347 l 521 347 l 521 260 l 434 260 l 434 174 l 521 174 l 521 87 l 608 87 l 608 0 l 521 0 l 521 -87 l 87 -87 l 87 0 l 0 0 l 0 87 z "},"\u0016":{"ha":781,"x_min":0,"x_max":608,"o":"m 0 347 l 608 347 l 608 0 l 0 0 l 0 347 z "},"\u0017":{"ha":781,"x_min":87,"x_max":608,"o":"m 87 694 l 174 694 l 174 781 l 260 781 l 260 868 l 434 868 l 434 781 l 521 781 l 521 694 l 608 694 l 608 608 l 434 608 l 434 347 l 608 347 l 608 260 l 521 260 l 521 174 l 434 174 l 434 87 l 608 87 l 608 0 l 87 0 l 87 87 l 260 87 l 260 174 l 174 174 l 174 260 l 87 260 l 87 347 l 260 347 l 260 608 l 87 608 l 87 694 z "},"\u0018":{"ha":781,"x_min":87,"x_max":608,"o":"m 87 694 l 174 694 l 174 781 l 260 781 l 260 868 l 434 868 l 434 781 l 521 781 l 521 694 l 608 694 l 608 608 l 434 608 l 434 0 l 260 0 l 260 608 l 87 608 l 87 694 z "},"\u0019":{"ha":781,"x_min":87,"x_max":608,"o":"m 87 260 l 260 260 l 260 868 l 434 868 l 434 260 l 608 260 l 608 174 l 521 174 l 521 87 l 434 87 l 434 0 l 260 0 l 260 87 l 174 87 l 174 174 l 87 174 l 87 260 z "},"\u001a":{"ha":781,"x_min":0,"x_max":608,"o":"m 260 608 l 434 608 l 434 521 l 521 521 l 521 434 l 608 434 l 608 347 l 521 347 l 521 260 l 434 260 l 434 174 l 260 174 l 260 260 l 347 260 l 347 347 l 0 347 l 0 434 l 347 434 l 347 521 l 260 521 l 260 608 z "},"\u001b":{"ha":781,"x_min":0,"x_max":608,"o":"m 174 260 l 87 260 l 87 347 l 0 347 l 0 434 l 87 434 l 87 521 l 174 521 l 174 608 l 347 608 l 347 521 l 260 521 l 260 434 l 608 434 l 608 347 l 260 347 l 260 260 l 347 260 l 347 174 l 174 174 l 174 260 z "},"\u001c":{"ha":781,"x_min":0,"x_max":608,"o":"m 0 521 l 174 521 l 174 260 l 608 260 l 608 174 l 0 174 l 0 521 z "},"\u001d":{"ha":781,"x_min":0,"x_max":608,"o":"m 521 260 l 434 260 l 434 174 l 347 174 l 347 347 l 260 347 l 260 174 l 174 174 l 174 260 l 87 260 l 87 347 l 0 347 l 0 434 l 87 434 l 87 521 l 174 521 l 174 608 l 260 608 l 260 434 l 347 434 l 347 608 l 434 608 l 434 521 l 521 521 l 521 434 l 608 434 l 608 347 l 521 347 l 521 260 z "},"\u001e":{"ha":781,"x_min":0,"x_max":608,"o":"m 0 260 l 87 260 l 87 434 l 174 434 l 174 608 l 260 608 l 260 694 l 347 694 l 347 608 l 434 608 l 434 434 l 521 434 l 521 260 l 608 260 l 608 87 l 0 87 l 0 260 z "},"\u001f":{"ha":781,"x_min":0,"x_max":608,"o":"m 521 347 l 434 347 l 434 174 l 347 174 l 347 87 l 260 87 l 260 174 l 174 174 l 174 347 l 87 347 l 87 521 l 0 521 l 0 694 l 608 694 l 608 521 l 521 521 l 521 347 z "},"!":{"ha":781,"x_min":174,"x_max":521,"o":"m 260 174 l 434 174 l 434 0 l 260 0 l 260 174 m 174 781 l 260 781 l 260 868 l 434 868 l 434 781 l 521 781 l 521 521 l 434 521 l 434 260 l 260 260 l 260 521 l 174 521 l 174 781 z "},"\"":{"ha":781,"x_min":87,"x_max":608,"o":"m 521 608 l 434 608 l 434 955 l 608 955 l 608 694 l 521 694 l 521 608 m 174 694 l 87 694 l 87 955 l 260 955 l 260 608 l 174 608 l 174 694 z "},"#":{"ha":781,"x_min":0,"x_max":608,"o":"m 347 260 l 347 521 l 260 521 l 260 260 l 347 260 m 87 781 l 260 781 l 260 608 l 347 608 l 347 781 l 521 781 l 521 608 l 608 608 l 608 521 l 521 521 l 521 260 l 608 260 l 608 174 l 521 174 l 521 0 l 347 0 l 347 174 l 260 174 l 260 0 l 87 0 l 87 174 l 0 174 l 0 260 l 87 260 l 87 521 l 0 521 l 0 608 l 87 608 l 87 781 z "},"$":{"ha":781,"x_min":0,"x_max":608,"o":"m 434 781 l 174 781 l 174 521 l 521 521 l 521 434 l 608 434 l 608 87 l 521 87 l 521 0 l 434 0 l 434 -174 l 260 -174 l 260 0 l 87 0 l 87 87 l 0 87 l 0 260 l 87 260 l 87 174 l 174 174 l 174 87 l 434 87 l 434 434 l 87 434 l 87 521 l 0 521 l 0 781 l 87 781 l 87 868 l 260 868 l 260 1042 l 434 1042 l 434 868 l 521 868 l 521 781 l 608 781 l 608 608 l 521 608 l 521 694 l 434 694 l 434 781 z "},"%":{"ha":781,"x_min":0,"x_max":608,"o":"m 434 174 l 608 174 l 608 0 l 434 0 l 434 174 m 0 694 l 174 694 l 174 521 l 0 521 l 0 694 m 521 434 l 434 434 l 434 347 l 347 347 l 347 260 l 260 260 l 260 174 l 174 174 l 174 87 l 87 87 l 87 0 l 0 0 l 0 174 l 87 174 l 87 260 l 174 260 l 174 347 l 260 347 l 260 434 l 347 434 l 347 521 l 434 521 l 434 608 l 521 608 l 521 694 l 608 694 l 608 521 l 521 521 l 521 434 z "},"&":{"ha":781,"x_min":0,"x_max":608,"o":"m 347 781 l 260 781 l 260 608 l 347 608 l 347 781 m 434 520 l 435 521 l 608 521 l 608 434 l 521 434 l 521 87 l 608 87 l 608 0 l 434 0 l 434 87 l 347 87 l 347 347 l 260 347 l 260 434 l 174 434 l 174 87 l 347 87 l 347 85 l 347 0 l 87 0 l 87 87 l 0 87 l 0 434 l 87 434 l 87 521 l 174 521 l 174 608 l 87 608 l 87 781 l 174 781 l 174 868 l 434 868 l 434 781 l 521 781 l 521 608 l 434 608 l 434 521 l 347 521 l 347 434 l 434 434 l 434 520 z "},"'":{"ha":781,"x_min":87,"x_max":347,"o":"m 87 694 l 174 694 l 174 955 l 347 955 l 347 694 l 260 694 l 260 608 l 87 608 l 87 694 z "},"(":{"ha":781,"x_min":174,"x_max":521,"o":"m 174 694 l 260 694 l 260 781 l 347 781 l 347 868 l 521 868 l 521 781 l 434 781 l 434 694 l 347 694 l 347 174 l 434 174 l 434 87 l 521 87 l 521 0 l 347 0 l 347 87 l 260 87 l 260 174 l 174 174 l 174 694 z "},")":{"ha":781,"x_min":174,"x_max":521,"o":"m 174 87 l 260 87 l 260 174 l 347 174 l 347 694 l 260 694 l 260 781 l 174 781 l 174 868 l 347 868 l 347 781 l 434 781 l 434 694 l 521 694 l 521 174 l 434 174 l 434 87 l 347 87 l 347 0 l 174 0 l 174 87 z "},"*":{"ha":781,"x_min":0,"x_max":694,"o":"m 87 608 l 260 608 l 260 521 l 434 521 l 434 608 l 608 608 l 608 521 l 521 521 l 521 434 l 694 434 l 694 347 l 521 347 l 521 260 l 608 260 l 608 174 l 434 174 l 434 260 l 260 260 l 260 174 l 87 174 l 87 260 l 174 260 l 174 347 l 0 347 l 0 434 l 174 434 l 174 521 l 87 521 l 87 608 z "},"+":{"ha":781,"x_min":87,"x_max":608,"o":"m 87 434 l 260 434 l 260 608 l 434 608 l 434 434 l 608 434 l 608 347 l 434 347 l 434 174 l 260 174 l 260 347 l 87 347 l 87 434 z "},",":{"ha":781,"x_min":174,"x_max":434,"o":"m 174 0 l 260 0 l 260 260 l 434 260 l 434 0 l 347 0 l 347 -87 l 174 -87 l 174 0 z "},"-":{"ha":781,"x_min":0,"x_max":608,"o":"m 0 434 l 608 434 l 608 347 l 0 347 l 0 434 z "},".":{"ha":781,"x_min":260,"x_max":434,"o":"m 260 174 l 434 174 l 434 0 l 260 0 l 260 174 z "},"/":{"ha":781,"x_min":0,"x_max":608,"o":"m 521 434 l 434 434 l 434 347 l 347 347 l 347 260 l 260 260 l 260 174 l 174 174 l 174 87 l 87 87 l 87 0 l 0 0 l 0 174 l 87 174 l 87 260 l 174 260 l 174 347 l 260 347 l 260 434 l 347 434 l 347 521 l 434 521 l 434 608 l 521 608 l 521 694 l 608 694 l 608 521 l 521 521 l 521 434 z "}," ":{"ha":781,"x_min":0,"x_max":0,"o":""}," ":{"ha":781,"x_min":0,"x_max":0,"o":""},"A":{"ha":781,"x_min":0,"x_max":608,"o":"m 347 694 l 260 694 l 260 608 l 174 608 l 174 434 l 434 434 l 434 608 l 347 608 l 347 694 m 434 0 l 434 347 l 174 347 l 174 0 l 0 0 l 0 608 l 87 608 l 87 694 l 174 694 l 174 781 l 260 781 l 260 868 l 347 868 l 347 781 l 434 781 l 434 694 l 521 694 l 521 608 l 608 608 l 608 0 l 434 0 z "},"a":{"ha":781,"x_min":0,"x_max":608,"o":"m 347 0 l 87 0 l 87 87 l 0 87 l 0 347 l 87 347 l 87 434 l 347 434 l 347 521 l 87 521 l 87 608 l 434 608 l 434 521 l 521 521 l 521 87 l 608 87 l 608 0 l 434 0 l 434 87 l 348 87 l 347 87 l 347 347 l 174 347 l 174 87 l 347 87 l 347 0 z "},"b":{"ha":781,"x_min":0,"x_max":608,"o":"m 347 521 l 260 521 l 260 87 l 434 87 l 434 434 l 347 434 l 347 521 m 260 608 l 434 608 l 434 521 l 521 521 l 521 434 l 608 434 l 608 87 l 521 87 l 521 0 l 87 0 l 87 781 l 0 781 l 0 868 l 260 868 l 260 608 z "},"c":{"ha":781,"x_min":0,"x_max":608,"o":"m 434 521 l 174 521 l 174 87 l 434 87 l 434 174 l 608 174 l 608 87 l 521 87 l 521 0 l 87 0 l 87 87 l 0 87 l 0 521 l 87 521 l 87 608 l 521 608 l 521 521 l 608 521 l 608 434 l 434 434 l 434 521 z "},"d":{"ha":781,"x_min":0,"x_max":608,"o":"m 347 521 l 260 521 l 260 434 l 174 434 l 174 87 l 347 87 l 347 86 l 347 0 l 87 0 l 87 87 l 0 87 l 0 434 l 87 434 l 87 521 l 174 521 l 174 608 l 347 608 l 347 781 l 260 781 l 260 868 l 521 868 l 521 87 l 608 87 l 608 0 l 434 0 l 434 87 l 347 87 l 347 521 z "},"e":{"ha":781,"x_min":0,"x_max":608,"o":"m 174 434 l 434 434 l 434 521 l 174 521 l 174 434 m 87 608 l 521 608 l 521 521 l 608 521 l 608 347 l 174 347 l 174 87 l 434 87 l 434 174 l 608 174 l 608 87 l 521 87 l 521 0 l 87 0 l 87 87 l 0 87 l 0 521 l 87 521 l 87 608 z "},"f":{"ha":781,"x_min":87,"x_max":608,"o":"m 87 521 l 174 521 l 174 781 l 260 781 l 260 868 l 521 868 l 521 781 l 608 781 l 608 608 l 521 608 l 521 694 l 434 694 l 434 781 l 347 781 l 347 521 l 434 521 l 434 434 l 347 434 l 347 87 l 434 87 l 434 0 l 87 0 l 87 87 l 174 87 l 174 434 l 87 434 l 87 521 z "},"g":{"ha":781,"x_min":0,"x_max":608,"o":"m 347 520 l 348 521 l 434 521 l 434 608 l 608 608 l 608 521 l 521 521 l 521 -174 l 434 -174 l 434 -260 l 87 -260 l 87 -174 l 0 -174 l 0 -87 l 174 -87 l 174 -174 l 347 -174 l 347 0 l 87 0 l 87 87 l 0 87 l 0 521 l 87 521 l 87 608 l 347 608 l 347 521 l 174 521 l 174 87 l 347 87 l 347 520 z "},"h":{"ha":781,"x_min":0,"x_max":608,"o":"m 347 608 l 521 608 l 521 521 l 608 521 l 608 0 l 434 0 l 434 521 l 347 521 l 347 608 m 260 0 l 0 0 l 0 87 l 87 87 l 87 781 l 0 781 l 0 868 l 260 868 l 260 521 l 347 521 l 347 434 l 260 434 l 260 0 z "},"i":{"ha":781,"x_min":174,"x_max":521,"o":"m 260 868 l 434 868 l 434 694 l 260 694 l 260 868 m 174 608 l 434 608 l 434 87 l 521 87 l 521 0 l 174 0 l 174 87 l 260 87 l 260 521 l 174 521 l 174 608 z "},"j":{"ha":781,"x_min":87,"x_max":608,"o":"m 434 868 l 608 868 l 608 694 l 434 694 l 434 868 m 347 608 l 608 608 l 608 -174 l 521 -174 l 521 -260 l 174 -260 l 174 -174 l 87 -174 l 87 0 l 260 0 l 260 -174 l 434 -174 l 434 521 l 347 521 l 347 608 z "},"k":{"ha":781,"x_min":0,"x_max":608,"o":"m 347 521 l 434 521 l 434 608 l 608 608 l 608 521 l 521 521 l 521 434 l 434 434 l 434 260 l 521 260 l 521 174 l 608 174 l 608 0 l 434 0 l 434 174 l 347 174 l 347 260 l 260 260 l 260 0 l 0 0 l 0 87 l 87 87 l 87 781 l 0 781 l 0 868 l 260 868 l 260 434 l 347 434 l 347 521 z "},"l":{"ha":781,"x_min":174,"x_max":521,"o":"m 174 868 l 434 868 l 434 87 l 521 87 l 521 0 l 174 0 l 174 87 l 260 87 l 260 781 l 174 781 l 174 868 z "},"m":{"ha":781,"x_min":0,"x_max":608,"o":"m 434 434 l 347 434 l 347 87 l 260 87 l 260 434 l 174 434 l 174 0 l 0 0 l 0 608 l 260 608 l 260 521 l 347 521 l 347 608 l 521 608 l 521 521 l 608 521 l 608 0 l 434 0 l 434 434 z "},"n":{"ha":781,"x_min":0,"x_max":608,"o":"m 87 521 l 0 521 l 0 608 l 174 608 l 174 521 l 260 521 l 260 0 l 87 0 l 87 521 m 260 608 l 521 608 l 521 521 l 608 521 l 608 0 l 434 0 l 434 521 l 260 521 l 260 608 z "},"o":{"ha":781,"x_min":0,"x_max":608,"o":"m 434 521 l 174 521 l 174 87 l 434 87 l 434 521 m 87 87 l 0 87 l 0 521 l 87 521 l 87 608 l 521 608 l 521 521 l 608 521 l 608 87 l 521 87 l 521 0 l 87 0 l 87 87 z "},"p":{"ha":781,"x_min":0,"x_max":608,"o":"m 260 608 l 521 608 l 521 521 l 608 521 l 608 87 l 521 87 l 521 0 l 260 0 l 260 -174 l 347 -174 l 347 -260 l 0 -260 l 0 -174 l 87 -174 l 87 521 l 0 521 l 0 608 l 174 608 l 174 521 l 260 521 l 260 520 l 260 87 l 434 87 l 434 521 l 260 521 l 260 608 z "},"q":{"ha":781,"x_min":0,"x_max":608,"o":"m 347 87 l 347 520 l 348 521 l 434 521 l 434 608 l 608 608 l 608 521 l 521 521 l 521 -174 l 608 -174 l 608 -260 l 260 -260 l 260 -174 l 347 -174 l 347 0 l 87 0 l 87 87 l 0 87 l 0 521 l 87 521 l 87 608 l 347 608 l 347 521 l 174 521 l 174 87 l 347 87 z "},"r":{"ha":781,"x_min":0,"x_max":608,"o":"m 347 434 l 260 434 l 260 87 l 347 87 l 347 0 l 0 0 l 0 87 l 87 87 l 87 521 l 0 521 l 0 608 l 174 608 l 174 521 l 260 521 l 260 608 l 521 608 l 521 521 l 608 521 l 608 347 l 434 347 l 434 521 l 347 521 l 347 434 z "},"s":{"ha":781,"x_min":0,"x_max":608,"o":"m 434 521 l 174 521 l 174 434 l 260 434 l 260 347 l 434 347 l 434 260 l 521 260 l 521 174 l 608 174 l 608 87 l 521 87 l 521 0 l 87 0 l 87 87 l 0 87 l 0 174 l 174 174 l 174 87 l 434 87 l 434 174 l 347 174 l 347 260 l 174 260 l 174 347 l 87 347 l 87 434 l 0 434 l 0 521 l 87 521 l 87 608 l 521 608 l 521 521 l 608 521 l 608 434 l 434 434 l 434 521 z "},"t":{"ha":781,"x_min":0,"x_max":608,"o":"m 0 608 l 174 608 l 174 781 l 260 781 l 260 868 l 347 868 l 347 608 l 521 608 l 521 521 l 347 521 l 347 87 l 434 87 l 434 174 l 608 174 l 608 87 l 521 87 l 521 0 l 260 0 l 260 87 l 174 87 l 174 521 l 0 521 l 0 608 z "},"u":{"ha":781,"x_min":0,"x_max":608,"o":"m 347 608 l 521 608 l 521 87 l 608 87 l 608 0 l 434 0 l 434 87 l 347 87 l 347 608 m 0 608 l 174 608 l 174 87 l 347 87 l 347 0 l 87 0 l 87 87 l 0 87 l 0 608 z "},"v":{"ha":781,"x_min":0,"x_max":608,"o":"m 434 608 l 608 608 l 608 174 l 521 174 l 521 87 l 434 87 l 434 0 l 174 0 l 174 87 l 87 87 l 87 174 l 0 174 l 0 608 l 174 608 l 174 174 l 260 174 l 260 87 l 347 87 l 347 174 l 434 174 l 434 608 z "},"w":{"ha":781,"x_min":0,"x_max":608,"o":"m 521 0 l 347 0 l 347 87 l 260 87 l 260 0 l 87 0 l 87 87 l 0 87 l 0 608 l 174 608 l 174 174 l 260 174 l 260 434 l 347 434 l 347 174 l 434 174 l 434 608 l 608 608 l 608 87 l 521 87 l 521 0 z "},"x":{"ha":781,"x_min":0,"x_max":608,"o":"m 0 608 l 174 608 l 174 521 l 260 521 l 260 434 l 347 434 l 347 521 l 434 521 l 434 608 l 608 608 l 608 521 l 521 521 l 521 434 l 434 434 l 434 174 l 521 174 l 521 87 l 608 87 l 608 0 l 434 0 l 434 87 l 347 87 l 347 174 l 260 174 l 260 87 l 174 87 l 174 0 l 0 0 l 0 87 l 87 87 l 87 174 l 174 174 l 174 434 l 87 434 l 87 521 l 0 521 l 0 608 z "},"y":{"ha":781,"x_min":0,"x_max":608,"o":"m 0 -174 l 347 -174 l 347 -87 l 434 -87 l 434 0 l 87 0 l 87 87 l 0 87 l 0 608 l 174 608 l 174 87 l 434 87 l 434 608 l 608 608 l 608 -87 l 521 -87 l 521 -174 l 434 -174 l 434 -260 l 0 -260 l 0 -174 z "},"z":{"ha":781,"x_min":0,"x_max":608,"o":"m 0 608 l 608 608 l 608 521 l 521 521 l 521 434 l 434 434 l 434 347 l 347 347 l 347 260 l 260 260 l 260 174 l 174 174 l 174 87 l 434 87 l 434 174 l 608 174 l 608 0 l 0 0 l 0 174 l 87 174 l 87 260 l 174 260 l 174 347 l 260 347 l 260 434 l 347 434 l 347 521 l 174 521 l 174 434 l 0 434 l 0 608 z "},"{":{"ha":781,"x_min":87,"x_max":608,"o":"m 347 868 l 608 868 l 608 781 l 434 781 l 434 521 l 347 521 l 347 434 l 434 434 l 434 87 l 608 87 l 608 0 l 347 0 l 347 87 l 260 87 l 260 434 l 87 434 l 87 521 l 260 521 l 260 781 l 347 781 l 347 868 z "},"B":{"ha":781,"x_min":0,"x_max":608,"o":"m 260 521 l 434 521 l 434 781 l 260 781 l 260 521 m 434 434 l 260 434 l 260 87 l 434 87 l 434 434 m 0 87 l 87 87 l 87 781 l 0 781 l 0 868 l 521 868 l 521 781 l 608 781 l 608 521 l 521 521 l 521 434 l 608 434 l 608 87 l 521 87 l 521 0 l 0 0 l 0 87 z "},"C":{"ha":781,"x_min":0,"x_max":608,"o":"m 434 781 l 260 781 l 260 694 l 174 694 l 174 174 l 260 174 l 260 87 l 434 87 l 434 174 l 521 174 l 521 260 l 608 260 l 608 87 l 521 87 l 521 0 l 174 0 l 174 87 l 87 87 l 87 174 l 0 174 l 0 694 l 87 694 l 87 781 l 174 781 l 174 868 l 521 868 l 521 781 l 608 781 l 608 608 l 521 608 l 521 694 l 434 694 l 434 781 z "},"D":{"ha":781,"x_min":0,"x_max":608,"o":"m 434 694 l 347 694 l 347 781 l 260 781 l 260 87 l 347 87 l 347 174 l 434 174 l 434 694 m 434 87 l 434 0 l 0 0 l 0 87 l 87 87 l 87 781 l 0 781 l 0 868 l 434 868 l 434 781 l 521 781 l 521 694 l 608 694 l 608 174 l 521 174 l 521 87 l 434 87 z "},"E":{"ha":781,"x_min":0,"x_max":608,"o":"m 347 434 l 260 434 l 260 87 l 434 87 l 434 174 l 521 174 l 521 260 l 608 260 l 608 0 l 0 0 l 0 87 l 87 87 l 87 781 l 0 781 l 0 868 l 608 868 l 608 608 l 521 608 l 521 694 l 434 694 l 434 781 l 260 781 l 260 521 l 347 521 l 347 608 l 434 608 l 434 347 l 347 347 l 347 434 z "},"F":{"ha":781,"x_min":0,"x_max":608,"o":"m 521 694 l 434 694 l 434 781 l 260 781 l 260 521 l 347 521 l 347 608 l 434 608 l 434 347 l 347 347 l 347 434 l 260 434 l 260 87 l 347 87 l 347 0 l 0 0 l 0 87 l 87 87 l 87 781 l 0 781 l 0 868 l 608 868 l 608 608 l 521 608 l 521 694 z "},"G":{"ha":781,"x_min":0,"x_max":608,"o":"m 260 434 l 608 434 l 608 0 l 521 0 l 521 87 l 434 87 l 434 347 l 260 347 l 260 434 m 434 781 l 260 781 l 260 694 l 174 694 l 174 174 l 260 174 l 260 87 l 434 87 l 434 0 l 174 0 l 174 87 l 87 87 l 87 174 l 0 174 l 0 694 l 87 694 l 87 781 l 174 781 l 174 868 l 521 868 l 521 781 l 608 781 l 608 608 l 521 608 l 521 694 l 434 694 l 434 781 z "},"H":{"ha":781,"x_min":0,"x_max":608,"o":"m 434 434 l 174 434 l 174 0 l 0 0 l 0 868 l 174 868 l 174 521 l 434 521 l 434 868 l 608 868 l 608 0 l 434 0 l 434 434 z "},"I":{"ha":781,"x_min":174,"x_max":521,"o":"m 174 868 l 521 868 l 521 781 l 434 781 l 434 87 l 521 87 l 521 0 l 174 0 l 174 87 l 260 87 l 260 781 l 174 781 l 174 868 z "},"J":{"ha":781,"x_min":0,"x_max":608,"o":"m 260 868 l 608 868 l 608 781 l 521 781 l 521 87 l 434 87 l 434 0 l 87 0 l 87 87 l 0 87 l 0 347 l 174 347 l 174 87 l 347 87 l 347 781 l 260 781 l 260 868 z "},"K":{"ha":781,"x_min":0,"x_max":608,"o":"m 521 521 l 434 521 l 434 347 l 521 347 l 521 260 l 608 260 l 608 0 l 434 0 l 434 260 l 347 260 l 347 347 l 260 347 l 260 0 l 0 0 l 0 87 l 87 87 l 87 781 l 0 781 l 0 868 l 260 868 l 260 521 l 347 521 l 347 608 l 434 608 l 434 868 l 608 868 l 608 608 l 521 608 l 521 521 z "},"L":{"ha":781,"x_min":0,"x_max":608,"o":"m 260 87 l 434 87 l 434 174 l 521 174 l 521 260 l 608 260 l 608 0 l 0 0 l 0 87 l 87 87 l 87 781 l 0 781 l 0 868 l 260 868 l 347 868 l 347 781 l 260 781 l 260 87 z "},"M":{"ha":781,"x_min":0,"x_max":608,"o":"m 347 434 l 260 434 l 260 521 l 174 521 l 174 0 l 0 0 l 0 868 l 174 868 l 174 781 l 260 781 l 260 694 l 347 694 l 347 781 l 434 781 l 434 868 l 608 868 l 608 0 l 434 0 l 434 521 l 347 521 l 347 434 z "},"N":{"ha":781,"x_min":0,"x_max":608,"o":"m 347 434 l 260 434 l 260 521 l 174 521 l 174 0 l 0 0 l 0 868 l 174 868 l 174 781 l 260 781 l 260 694 l 347 694 l 347 608 l 434 608 l 434 868 l 608 868 l 608 0 l 434 0 l 434 347 l 347 347 l 347 434 z "},"O":{"ha":781,"x_min":0,"x_max":608,"o":"m 434 781 l 174 781 l 174 87 l 434 87 l 434 781 m 0 781 l 87 781 l 87 868 l 521 868 l 521 781 l 608 781 l 608 87 l 521 87 l 521 0 l 87 0 l 87 87 l 0 87 l 0 781 z "},"P":{"ha":781,"x_min":0,"x_max":608,"o":"m 434 781 l 260 781 l 260 521 l 434 521 l 434 781 m 260 87 l 347 87 l 347 0 l 0 0 l 0 87 l 87 87 l 87 781 l 0 781 l 0 868 l 521 868 l 521 781 l 608 781 l 608 521 l 521 521 l 521 434 l 260 434 l 260 87 z "},"Q":{"ha":781,"x_min":0,"x_max":608,"o":"m 347 174 l 434 174 l 434 781 l 174 781 l 174 87 l 260 87 l 260 260 l 347 260 l 347 174 m 347 0 l 87 0 l 87 87 l 0 87 l 0 781 l 87 781 l 87 868 l 521 868 l 521 781 l 608 781 l 608 87 l 521 87 l 521 -87 l 608 -87 l 608 -174 l 347 -174 l 347 0 z "},"R":{"ha":781,"x_min":0,"x_max":608,"o":"m 434 781 l 260 781 l 260 521 l 434 521 l 434 781 m 434 347 l 347 347 l 347 434 l 260 434 l 260 0 l 0 0 l 0 87 l 87 87 l 87 781 l 0 781 l 0 868 l 521 868 l 521 781 l 608 781 l 608 521 l 521 521 l 521 347 l 608 347 l 608 0 l 434 0 l 434 347 z "},"S":{"ha":781,"x_min":0,"x_max":608,"o":"m 0 260 l 174 260 l 174 87 l 434 87 l 434 347 l 347 347 l 347 434 l 174 434 l 174 521 l 87 521 l 87 608 l 0 608 l 0 781 l 87 781 l 87 868 l 521 868 l 521 781 l 608 781 l 608 608 l 434 608 l 434 781 l 174 781 l 174 608 l 260 608 l 260 521 l 434 521 l 434 434 l 521 434 l 521 347 l 608 347 l 608 87 l 521 87 l 521 0 l 87 0 l 87 87 l 0 87 l 0 260 z "},"T":{"ha":781,"x_min":87,"x_max":608,"o":"m 174 87 l 260 87 l 260 694 l 174 694 l 174 608 l 87 608 l 87 868 l 608 868 l 608 608 l 521 608 l 521 694 l 434 694 l 434 87 l 521 87 l 521 0 l 174 0 l 174 87 z "},"U":{"ha":781,"x_min":0,"x_max":608,"o":"m 0 868 l 174 868 l 174 87 l 434 87 l 434 868 l 608 868 l 608 87 l 521 87 l 521 0 l 87 0 l 87 87 l 0 87 l 0 868 z "},"V":{"ha":781,"x_min":0,"x_max":608,"o":"m 260 87 l 174 87 l 174 174 l 87 174 l 87 260 l 0 260 l 0 868 l 174 868 l 174 260 l 260 260 l 260 174 l 347 174 l 347 260 l 434 260 l 434 868 l 608 868 l 608 260 l 521 260 l 521 174 l 434 174 l 434 87 l 347 87 l 347 0 l 260 0 l 260 87 z "},"W":{"ha":781,"x_min":0,"x_max":608,"o":"m 260 0 l 87 0 l 87 87 l 0 87 l 0 868 l 174 868 l 174 260 l 260 260 l 260 521 l 347 521 l 347 260 l 434 260 l 434 868 l 608 868 l 608 87 l 521 87 l 521 0 l 347 0 l 347 174 l 260 174 l 260 0 z "},"X":{"ha":781,"x_min":0,"x_max":608,"o":"m 174 521 l 87 521 l 87 694 l 0 694 l 0 868 l 174 868 l 174 694 l 260 694 l 260 608 l 347 608 l 347 694 l 434 694 l 434 868 l 608 868 l 608 694 l 521 694 l 521 521 l 434 521 l 434 347 l 521 347 l 521 174 l 608 174 l 608 0 l 434 0 l 434 174 l 347 174 l 347 260 l 260 260 l 260 174 l 174 174 l 174 0 l 0 0 l 0 174 l 87 174 l 87 347 l 174 347 l 174 521 z "},"Y":{"ha":781,"x_min":87,"x_max":608,"o":"m 174 87 l 260 87 l 260 434 l 174 434 l 174 521 l 87 521 l 87 868 l 260 868 l 260 521 l 434 521 l 434 868 l 608 868 l 608 521 l 521 521 l 521 434 l 434 434 l 434 87 l 521 87 l 521 0 l 174 0 l 174 87 z "},"Z":{"ha":781,"x_min":0,"x_max":608,"o":"m 0 260 l 87 260 l 87 347 l 174 347 l 174 434 l 260 434 l 260 521 l 347 521 l 347 608 l 434 608 l 434 781 l 174 781 l 174 694 l 87 694 l 87 608 l 0 608 l 0 868 l 608 868 l 608 608 l 521 608 l 521 521 l 434 521 l 434 434 l 347 434 l 347 347 l 260 347 l 260 260 l 174 260 l 174 87 l 434 87 l 434 174 l 521 174 l 521 260 l 608 260 l 608 0 l 0 0 l 0 260 z "},"[":{"ha":781,"x_min":174,"x_max":521,"o":"m 347 87 l 521 87 l 521 0 l 174 0 l 174 868 l 521 868 l 521 781 l 347 781 l 347 87 z "},":":{"ha":781,"x_min":260,"x_max":434,"o":"m 260 260 l 434 260 l 434 87 l 260 87 l 260 260 m 260 694 l 434 694 l 434 521 l 260 521 l 260 694 z "},";":{"ha":781,"x_min":174,"x_max":434,"o":"m 260 694 l 434 694 l 434 521 l 260 521 l 260 694 m 260 260 l 434 260 l 434 87 l 347 87 l 347 0 l 174 0 l 174 87 l 260 87 l 260 260 z "},"<":{"ha":781,"x_min":87,"x_max":608,"o":"m 434 781 l 608 781 l 608 694 l 521 694 l 521 608 l 434 608 l 434 521 l 347 521 l 347 434 l 260 434 l 260 347 l 347 347 l 347 260 l 434 260 l 434 174 l 521 174 l 521 87 l 608 87 l 608 0 l 434 0 l 434 87 l 347 87 l 347 174 l 260 174 l 260 260 l 174 260 l 174 347 l 87 347 l 87 434 l 174 434 l 174 521 l 260 521 l 260 608 l 347 608 l 347 694 l 434 694 l 434 781 z "},"=":{"ha":781,"x_min":87,"x_max":608,"o":"m 87 608 l 608 608 l 608 521 l 87 521 l 87 608 m 87 347 l 608 347 l 608 260 l 87 260 l 87 347 z "},">":{"ha":781,"x_min":87,"x_max":608,"o":"m 87 781 l 260 781 l 260 694 l 347 694 l 347 608 l 434 608 l 434 521 l 521 521 l 521 434 l 608 434 l 608 347 l 521 347 l 521 260 l 434 260 l 434 174 l 347 174 l 347 87 l 260 87 l 260 0 l 87 0 l 87 87 l 174 87 l 174 174 l 260 174 l 260 260 l 347 260 l 347 347 l 434 347 l 434 434 l 347 434 l 347 521 l 260 521 l 260 608 l 174 608 l 174 694 l 87 694 l 87 781 z "},"?":{"ha":781,"x_min":0,"x_max":608,"o":"m 260 174 l 434 174 l 434 0 l 260 0 l 260 174 m 260 521 l 347 521 l 347 608 l 434 608 l 434 781 l 174 781 l 174 608 l 0 608 l 0 781 l 87 781 l 87 868 l 521 868 l 521 781 l 608 781 l 608 608 l 521 608 l 521 521 l 434 521 l 434 260 l 260 260 l 260 521 z "},"@":{"ha":781,"x_min":0,"x_max":608,"o":"m 260 521 l 434 521 l 434 694 l 174 694 l 174 87 l 521 87 l 521 0 l 87 0 l 87 87 l 0 87 l 0 694 l 87 694 l 87 781 l 521 781 l 521 694 l 608 694 l 608 260 l 521 260 l 521 174 l 260 174 l 260 521 z "},"\\":{"ha":781,"x_min":0,"x_max":608,"o":"m 521 87 l 434 87 l 434 174 l 347 174 l 347 260 l 260 260 l 260 347 l 174 347 l 174 434 l 87 434 l 87 521 l 0 521 l 0 781 l 87 781 l 87 694 l 174 694 l 174 608 l 260 608 l 260 521 l 347 521 l 347 434 l 434 434 l 434 347 l 521 347 l 521 260 l 608 260 l 608 0 l 521 0 l 521 87 z "},"]":{"ha":781,"x_min":174,"x_max":521,"o":"m 174 87 l 347 87 l 347 781 l 174 781 l 174 868 l 521 868 l 521 0 l 174 0 l 174 87 z "},"^":{"ha":781,"x_min":0,"x_max":608,"o":"m 347 868 l 260 868 l 260 781 l 174 781 l 174 694 l 0 694 l 0 781 l 87 781 l 87 868 l 174 868 l 174 955 l 260 955 l 260 1042 l 347 1042 l 347 955 l 434 955 l 434 868 l 521 868 l 521 781 l 608 781 l 608 694 l 434 694 l 434 781 l 347 781 l 347 868 z "},"_":{"ha":781,"x_min":0,"x_max":694,"o":"m 0 -87 l 694 -87 l 694 -174 l 0 -174 l 0 -87 z "},"|":{"ha":781,"x_min":260,"x_max":434,"o":"m 260 868 l 434 868 l 434 0 l 260 0 l 260 868 z "},"~":{"ha":781,"x_min":0,"x_max":608,"o":"m 434 955 l 608 955 l 608 868 l 521 868 l 521 781 l 260 781 l 260 868 l 174 868 l 174 781 l 0 781 l 0 868 l 87 868 l 87 955 l 347 955 l 347 868 l 434 868 l 434 955 z "},"":{"ha":781,"x_min":0,"x_max":608,"o":"m 347 521 l 260 521 l 260 434 l 174 434 l 174 174 l 434 174 l 434 434 l 347 434 l 347 521 m 434 521 l 521 521 l 521 434 l 608 434 l 608 87 l 0 87 l 0 434 l 87 434 l 87 521 l 174 521 l 174 608 l 260 608 l 260 694 l 347 694 l 347 608 l 434 608 l 434 521 z "},"}":{"ha":781,"x_min":87,"x_max":608,"o":"m 87 87 l 260 87 l 260 434 l 347 434 l 347 521 l 260 521 l 260 781 l 87 781 l 87 868 l 347 868 l 347 781 l 434 781 l 434 521 l 608 521 l 608 434 l 434 434 l 434 87 l 347 87 l 347 0 l 87 0 l 87 87 z "},"`":{"ha":781,"x_min":174,"x_max":521,"o":"m 347 781 l 260 781 l 260 868 l 174 868 l 174 955 l 347 955 l 347 868 l 434 868 l 434 781 l 521 781 l 521 694 l 347 694 l 347 781 z "},"Ç":{"ha":781,"x_min":0,"x_max":608,"o":"m 87 -87 l 260 -87 l 260 0 l 174 0 l 174 87 l 87 87 l 87 174 l 0 174 l 0 694 l 87 694 l 87 781 l 174 781 l 174 868 l 521 868 l 521 781 l 608 781 l 608 608 l 521 608 l 521 694 l 434 694 l 434 781 l 260 781 l 260 694 l 174 694 l 174 174 l 260 174 l 260 87 l 434 87 l 434 174 l 521 174 l 521 260 l 608 260 l 608 87 l 521 87 l 521 0 l 434 0 l 434 -87 l 347 -87 l 347 -174 l 87 -174 l 87 -87 z "},"ü":{"ha":781,"x_min":0,"x_max":608,"o":"m 347 868 l 521 868 l 521 781 l 347 781 l 347 868 m 0 868 l 174 868 l 174 781 l 0 781 l 0 868 m 347 608 l 521 608 l 521 87 l 608 87 l 608 0 l 434 0 l 434 87 l 347 87 l 347 608 m 0 608 l 174 608 l 174 87 l 347 87 l 347 0 l 87 0 l 87 87 l 0 87 l 0 608 z "},"é":{"ha":781,"x_min":0,"x_max":608,"o":"m 174 434 l 434 434 l 434 521 l 174 521 l 174 434 m 260 868 l 347 868 l 347 955 l 521 955 l 521 868 l 434 868 l 434 781 l 347 781 l 347 694 l 174 694 l 174 781 l 260 781 l 260 868 m 87 608 l 521 608 l 521 521 l 608 521 l 608 347 l 174 347 l 174 87 l 434 87 l 434 174 l 608 174 l 608 87 l 521 87 l 521 0 l 87 0 l 87 87 l 0 87 l 0 521 l 87 521 l 87 608 z "},"â":{"ha":781,"x_min":0,"x_max":608,"o":"m 87 781 l 174 781 l 174 868 l 260 868 l 260 955 l 347 955 l 347 868 l 434 868 l 434 781 l 521 781 l 521 694 l 347 694 l 347 781 l 260 781 l 260 694 l 87 694 l 87 781 m 347 0 l 87 0 l 87 87 l 0 87 l 0 347 l 87 347 l 87 434 l 347 434 l 347 521 l 87 521 l 87 608 l 434 608 l 434 521 l 521 521 l 521 87 l 608 87 l 608 0 l 434 0 l 434 87 l 348 87 l 347 87 l 347 347 l 174 347 l 174 87 l 347 87 l 347 0 z "},"ä":{"ha":781,"x_min":0,"x_max":608,"o":"m 347 868 l 521 868 l 521 781 l 347 781 l 347 868 m 0 868 l 174 868 l 174 781 l 0 781 l 0 868 m 347 0 l 87 0 l 87 87 l 0 87 l 0 347 l 87 347 l 87 434 l 347 434 l 347 521 l 87 521 l 87 608 l 434 608 l 434 521 l 521 521 l 521 87 l 608 87 l 608 0 l 434 0 l 434 87 l 348 87 l 347 87 l 347 347 l 174 347 l 174 87 l 347 87 l 347 0 z "},"à":{"ha":781,"x_min":0,"x_max":608,"o":"m 260 781 l 174 781 l 174 868 l 87 868 l 87 955 l 260 955 l 260 868 l 347 868 l 347 781 l 434 781 l 434 694 l 260 694 l 260 781 m 347 0 l 87 0 l 87 87 l 0 87 l 0 347 l 87 347 l 87 434 l 347 434 l 347 521 l 87 521 l 87 608 l 434 608 l 434 521 l 521 521 l 521 87 l 608 87 l 608 0 l 434 0 l 434 87 l 348 87 l 347 87 l 347 347 l 174 347 l 174 87 l 347 87 l 347 0 z "},"å":{"ha":781,"x_min":0,"x_max":608,"o":"m 347 868 l 260 868 l 260 781 l 347 781 l 347 868 m 87 868 l 174 868 l 174 955 l 434 955 l 434 868 l 521 868 l 521 781 l 434 781 l 434 694 l 174 694 l 174 781 l 87 781 l 87 868 m 347 0 l 87 0 l 87 87 l 0 87 l 0 347 l 87 347 l 87 434 l 347 434 l 347 521 l 87 521 l 87 608 l 434 608 l 434 521 l 521 521 l 521 87 l 608 87 l 608 0 l 434 0 l 434 87 l 348 87 l 347 87 l 347 347 l 174 347 l 174 87 l 347 87 l 347 0 z "},"ç":{"ha":781,"x_min":0,"x_max":608,"o":"m 87 -87 l 260 -87 l 260 0 l 87 0 l 87 87 l 0 87 l 0 521 l 87 521 l 87 608 l 521 608 l 521 521 l 608 521 l 608 434 l 434 434 l 434 521 l 174 521 l 174 87 l 434 87 l 434 174 l 608 174 l 608 87 l 521 87 l 521 0 l 434 0 l 434 -87 l 347 -87 l 347 -174 l 87 -174 l 87 -87 z "},"ê":{"ha":781,"x_min":0,"x_max":608,"o":"m 174 434 l 434 434 l 434 521 l 174 521 l 174 434 m 260 955 l 347 955 l 347 868 l 434 868 l 434 781 l 521 781 l 521 694 l 347 694 l 347 781 l 260 781 l 260 694 l 87 694 l 87 781 l 174 781 l 174 868 l 260 868 l 260 955 m 87 608 l 521 608 l 521 521 l 608 521 l 608 347 l 174 347 l 174 87 l 434 87 l 434 174 l 608 174 l 608 87 l 521 87 l 521 0 l 87 0 l 87 87 l 0 87 l 0 521 l 87 521 l 87 608 z "},"ë":{"ha":781,"x_min":0,"x_max":608,"o":"m 434 868 l 608 868 l 608 781 l 434 781 l 434 868 m 0 868 l 174 868 l 174 781 l 0 781 l 0 868 m 174 434 l 434 434 l 434 521 l 174 521 l 174 434 m 87 608 l 521 608 l 521 521 l 608 521 l 608 347 l 174 347 l 174 87 l 434 87 l 434 174 l 608 174 l 608 87 l 521 87 l 521 0 l 87 0 l 87 87 l 0 87 l 0 521 l 87 521 l 87 608 z "},"è":{"ha":781,"x_min":0,"x_max":608,"o":"m 174 434 l 434 434 l 434 521 l 174 521 l 174 434 m 260 781 l 174 781 l 174 868 l 87 868 l 87 955 l 260 955 l 260 868 l 347 868 l 347 781 l 434 781 l 434 694 l 260 694 l 260 781 m 87 608 l 521 608 l 521 521 l 608 521 l 608 347 l 174 347 l 174 87 l 434 87 l 434 174 l 608 174 l 608 87 l 521 87 l 521 0 l 87 0 l 87 87 l 0 87 l 0 521 l 87 521 l 87 608 z "},"ï":{"ha":781,"x_min":87,"x_max":608,"o":"m 87 868 l 260 868 l 260 781 l 87 781 l 87 868 m 434 868 l 608 868 l 608 781 l 434 781 l 434 868 m 174 608 l 434 608 l 434 87 l 521 87 l 521 0 l 174 0 l 174 87 l 260 87 l 260 521 l 174 521 l 174 608 z "},"î":{"ha":781,"x_min":87,"x_max":608,"o":"m 434 781 l 260 781 l 260 694 l 87 694 l 87 781 l 174 781 l 174 868 l 260 868 l 260 955 l 434 955 l 434 868 l 521 868 l 521 781 l 608 781 l 608 694 l 434 694 l 434 781 m 174 608 l 434 608 l 434 87 l 521 87 l 521 0 l 174 0 l 174 87 l 260 87 l 260 521 l 174 521 l 174 608 z "},"ì":{"ha":781,"x_min":87,"x_max":521,"o":"m 87 955 l 260 955 l 260 868 l 347 868 l 347 781 l 434 781 l 434 694 l 260 694 l 260 781 l 174 781 l 174 868 l 87 868 l 87 955 m 174 608 l 434 608 l 434 87 l 521 87 l 521 0 l 174 0 l 174 87 l 260 87 l 260 521 l 174 521 l 174 608 z "},"Ä":{"ha":781,"x_min":0,"x_max":608,"o":"m 434 955 l 608 955 l 608 868 l 434 868 l 434 955 m 0 955 l 174 955 l 174 868 l 0 868 l 0 955 m 347 694 l 260 694 l 260 608 l 174 608 l 174 434 l 434 434 l 434 608 l 347 608 l 347 694 m 434 0 l 434 347 l 174 347 l 174 0 l 0 0 l 0 608 l 87 608 l 87 694 l 174 694 l 174 781 l 260 781 l 260 868 l 347 868 l 347 781 l 434 781 l 434 694 l 521 694 l 521 608 l 608 608 l 608 0 l 434 0 z "},"Å":{"ha":781,"x_min":0,"x_max":608,"o":"m 347 955 l 260 955 l 260 868 l 347 868 l 347 955 m 347 608 l 260 608 l 260 521 l 174 521 l 174 434 l 434 434 l 434 521 l 347 521 l 347 608 m 434 694 l 434 608 l 521 608 l 521 521 l 608 521 l 608 0 l 434 0 l 434 347 l 174 347 l 174 0 l 0 0 l 0 521 l 87 521 l 87 608 l 174 608 l 174 694 l 260 694 l 260 781 l 174 781 l 174 868 l 87 868 l 87 955 l 174 955 l 174 1042 l 434 1042 l 434 955 l 521 955 l 521 868 l 434 868 l 434 781 l 347 781 l 347 694 l 434 694 z "},"É":{"ha":781,"x_min":0,"x_max":608,"o":"m 260 955 l 347 955 l 347 1042 l 521 1042 l 521 955 l 434 955 l 434 868 l 260 868 l 260 955 m 347 347 l 260 347 l 260 87 l 434 87 l 434 174 l 521 174 l 521 260 l 608 260 l 608 0 l 0 0 l 0 87 l 87 87 l 87 694 l 0 694 l 0 781 l 608 781 l 608 521 l 521 521 l 521 608 l 434 608 l 434 694 l 260 694 l 260 434 l 347 434 l 347 521 l 434 521 l 434 260 l 347 260 l 347 347 z "},"æ":{"ha":781,"x_min":0,"x_max":608,"o":"m 347 347 l 434 347 l 434 521 l 348 521 l 347 522 l 347 608 l 521 608 l 521 521 l 608 521 l 608 260 l 434 260 l 434 87 l 608 87 l 608 0 l 347 0 l 347 87 l 261 87 l 260 87 l 260 260 l 174 260 l 174 87 l 260 87 l 260 0 l 87 0 l 87 87 l 0 87 l 0 260 l 87 260 l 87 347 l 174 347 l 174 521 l 0 521 l 0 608 l 260 608 l 260 521 l 347 521 l 347 347 z "},"Æ":{"ha":781,"x_min":0,"x_max":608,"o":"m 174 694 l 347 694 l 347 955 l 260 955 l 260 868 l 174 868 l 174 694 m 347 608 l 174 608 l 174 0 l 0 0 l 0 868 l 87 868 l 87 955 l 174 955 l 174 1042 l 608 1042 l 608 955 l 521 955 l 521 694 l 608 694 l 608 608 l 521 608 l 521 87 l 608 87 l 608 0 l 347 0 l 347 608 z "},"ô":{"ha":781,"x_min":0,"x_max":608,"o":"m 347 781 l 260 781 l 260 694 l 87 694 l 87 781 l 174 781 l 174 868 l 260 868 l 260 955 l 347 955 l 347 868 l 434 868 l 434 781 l 521 781 l 521 694 l 347 694 l 347 781 m 434 521 l 174 521 l 174 87 l 434 87 l 434 521 m 87 87 l 0 87 l 0 521 l 87 521 l 87 608 l 521 608 l 521 521 l 608 521 l 608 87 l 521 87 l 521 0 l 87 0 l 87 87 z "},"ö":{"ha":781,"x_min":0,"x_max":608,"o":"m 434 868 l 608 868 l 608 781 l 434 781 l 434 868 m 0 868 l 174 868 l 174 781 l 0 781 l 0 868 m 434 521 l 174 521 l 174 87 l 434 87 l 434 521 m 87 87 l 0 87 l 0 521 l 87 521 l 87 608 l 521 608 l 521 521 l 608 521 l 608 87 l 521 87 l 521 0 l 87 0 l 87 87 z "},"ò":{"ha":781,"x_min":0,"x_max":608,"o":"m 87 955 l 260 955 l 260 868 l 347 868 l 347 781 l 434 781 l 434 694 l 260 694 l 260 781 l 174 781 l 174 868 l 87 868 l 87 955 m 434 521 l 174 521 l 174 87 l 434 87 l 434 521 m 87 87 l 0 87 l 0 521 l 87 521 l 87 608 l 521 608 l 521 521 l 608 521 l 608 87 l 521 87 l 521 0 l 87 0 l 87 87 z "},"û":{"ha":781,"x_min":0,"x_max":608,"o":"m 347 781 l 174 781 l 174 694 l 0 694 l 0 781 l 87 781 l 87 868 l 174 868 l 174 955 l 347 955 l 347 868 l 434 868 l 434 781 l 521 781 l 521 694 l 347 694 l 347 781 m 347 608 l 521 608 l 521 87 l 608 87 l 608 0 l 434 0 l 434 87 l 347 87 l 347 608 m 0 608 l 174 608 l 174 87 l 347 87 l 347 0 l 87 0 l 87 87 l 0 87 l 0 608 z "},"ù":{"ha":781,"x_min":0,"x_max":608,"o":"m 87 955 l 260 955 l 260 868 l 347 868 l 347 781 l 434 781 l 434 694 l 260 694 l 260 781 l 174 781 l 174 868 l 87 868 l 87 955 m 347 608 l 521 608 l 521 87 l 608 87 l 608 0 l 434 0 l 434 87 l 347 87 l 347 608 m 0 608 l 174 608 l 174 87 l 347 87 l 347 0 l 87 0 l 87 87 l 0 87 l 0 608 z "},"ÿ":{"ha":781,"x_min":0,"x_max":608,"o":"m 0 868 l 174 868 l 174 781 l 0 781 l 0 868 m 434 868 l 608 868 l 608 781 l 434 781 l 434 868 m 0 -174 l 347 -174 l 347 -87 l 434 -87 l 434 0 l 87 0 l 87 87 l 0 87 l 0 608 l 174 608 l 174 87 l 434 87 l 434 608 l 608 608 l 608 -87 l 521 -87 l 521 -174 l 434 -174 l 434 -260 l 0 -260 l 0 -174 z "},"Ö":{"ha":781,"x_min":0,"x_max":608,"o":"m 434 955 l 608 955 l 608 868 l 434 868 l 434 955 m 0 955 l 174 955 l 174 868 l 0 868 l 0 955 m 434 694 l 174 694 l 174 87 l 434 87 l 434 694 m 0 694 l 87 694 l 87 781 l 521 781 l 521 694 l 608 694 l 608 87 l 521 87 l 521 0 l 87 0 l 87 87 l 0 87 l 0 694 z "},"Ü":{"ha":781,"x_min":0,"x_max":608,"o":"m 0 955 l 174 955 l 174 868 l 0 868 l 0 955 m 434 955 l 608 955 l 608 868 l 434 868 l 434 955 m 0 781 l 174 781 l 174 87 l 434 87 l 434 781 l 608 781 l 608 87 l 521 87 l 521 0 l 87 0 l 87 87 l 0 87 l 0 781 z "},"¢":{"ha":781,"x_min":0,"x_max":608,"o":"m 434 694 l 174 694 l 174 260 l 434 260 l 434 347 l 608 347 l 608 260 l 521 260 l 521 174 l 434 174 l 434 0 l 260 0 l 260 174 l 87 174 l 87 260 l 0 260 l 0 694 l 87 694 l 87 781 l 260 781 l 260 955 l 434 955 l 434 781 l 521 781 l 521 694 l 608 694 l 608 608 l 434 608 l 434 694 z "},"£":{"ha":781,"x_min":0,"x_max":608,"o":"m 347 868 l 260 868 l 260 608 l 347 608 l 347 521 l 260 521 l 260 87 l 434 87 l 434 174 l 608 174 l 608 87 l 521 87 l 521 0 l 0 0 l 0 174 l 87 174 l 87 521 l 0 521 l 0 608 l 87 608 l 87 868 l 174 868 l 174 955 l 434 955 l 434 868 l 521 868 l 521 694 l 434 694 l 434 781 l 347 781 l 347 868 z "},"¥":{"ha":781,"x_min":87,"x_max":608,"o":"m 87 347 l 260 347 l 260 434 l 87 434 l 87 521 l 260 521 l 260 608 l 174 608 l 174 694 l 87 694 l 87 868 l 260 868 l 260 694 l 434 694 l 434 868 l 608 868 l 608 694 l 521 694 l 521 608 l 434 608 l 434 521 l 608 521 l 608 434 l 434 434 l 434 347 l 608 347 l 608 260 l 434 260 l 434 0 l 260 0 l 260 260 l 87 260 l 87 347 z "},"ƒ":{"ha":781,"x_min":0,"x_max":694,"o":"m 87 521 l 260 521 l 260 868 l 347 868 l 347 955 l 608 955 l 608 868 l 694 868 l 694 781 l 521 781 l 521 868 l 434 868 l 434 521 l 608 521 l 608 434 l 434 434 l 434 87 l 347 87 l 347 0 l 87 0 l 87 87 l 0 87 l 0 174 l 174 174 l 174 87 l 260 87 l 260 434 l 87 434 l 87 521 z "},"á":{"ha":781,"x_min":0,"x_max":608,"o":"m 260 955 l 434 955 l 434 868 l 347 868 l 347 781 l 260 781 l 260 694 l 87 694 l 87 781 l 174 781 l 174 868 l 260 868 l 260 955 m 347 0 l 87 0 l 87 87 l 0 87 l 0 347 l 87 347 l 87 434 l 347 434 l 347 521 l 87 521 l 87 608 l 434 608 l 434 521 l 521 521 l 521 87 l 608 87 l 608 0 l 434 0 l 434 87 l 348 87 l 347 87 l 347 347 l 174 347 l 174 87 l 347 87 l 347 0 z "},"í":{"ha":781,"x_min":174,"x_max":521,"o":"m 347 955 l 521 955 l 521 868 l 434 868 l 434 781 l 347 781 l 347 694 l 174 694 l 174 781 l 260 781 l 260 868 l 347 868 l 347 955 m 174 608 l 434 608 l 434 87 l 521 87 l 521 0 l 174 0 l 174 87 l 260 87 l 260 521 l 174 521 l 174 608 z "},"ó":{"ha":781,"x_min":0,"x_max":608,"o":"m 260 955 l 434 955 l 434 868 l 347 868 l 347 781 l 260 781 l 260 694 l 87 694 l 87 781 l 174 781 l 174 868 l 260 868 l 260 955 m 434 521 l 174 521 l 174 87 l 434 87 l 434 521 m 87 87 l 0 87 l 0 521 l 87 521 l 87 608 l 521 608 l 521 521 l 608 521 l 608 87 l 521 87 l 521 0 l 87 0 l 87 87 z "},"ú":{"ha":781,"x_min":0,"x_max":608,"o":"m 87 781 l 174 781 l 174 868 l 260 868 l 260 955 l 434 955 l 434 868 l 347 868 l 347 781 l 260 781 l 260 694 l 87 694 l 87 781 m 347 608 l 521 608 l 521 87 l 608 87 l 608 0 l 434 0 l 434 87 l 347 87 l 347 608 m 0 608 l 174 608 l 174 87 l 347 87 l 347 0 l 87 0 l 87 87 l 0 87 l 0 608 z "},"ñ":{"ha":781,"x_min":0,"x_max":608,"o":"m 260 781 l 174 781 l 174 694 l 0 694 l 0 781 l 87 781 l 87 868 l 347 868 l 347 781 l 434 781 l 434 868 l 608 868 l 608 781 l 521 781 l 521 694 l 260 694 l 260 781 m 87 521 l 0 521 l 0 608 l 174 608 l 174 521 l 260 521 l 260 0 l 87 0 l 87 521 m 260 608 l 521 608 l 521 521 l 608 521 l 608 0 l 434 0 l 434 521 l 260 521 l 260 608 z "},"Ñ":{"ha":781,"x_min":0,"x_max":608,"o":"m 434 1042 l 608 1042 l 608 955 l 521 955 l 521 868 l 260 868 l 260 955 l 174 955 l 174 868 l 0 868 l 0 955 l 87 955 l 87 1042 l 347 1042 l 347 955 l 434 955 l 434 1042 m 347 347 l 260 347 l 260 434 l 174 434 l 174 0 l 0 0 l 0 781 l 174 781 l 174 694 l 260 694 l 260 608 l 347 608 l 347 521 l 434 521 l 434 781 l 608 781 l 608 0 l 434 0 l 434 260 l 347 260 l 347 347 z "},"ª":{"ha":781,"x_min":87,"x_max":608,"o":"m 260 608 l 347 608 l 347 781 l 260 781 l 260 608 m 87 434 l 608 434 l 608 347 l 87 347 l 87 434 m 174 608 l 87 608 l 87 781 l 174 781 l 174 868 l 521 868 l 521 608 l 608 608 l 608 521 l 174 521 l 174 608 z "},"º":{"ha":781,"x_min":87,"x_max":521,"o":"m 347 781 l 260 781 l 260 608 l 347 608 l 347 781 m 87 434 l 521 434 l 521 347 l 87 347 l 87 434 m 174 608 l 87 608 l 87 781 l 174 781 l 174 868 l 434 868 l 434 781 l 521 781 l 521 608 l 434 608 l 434 521 l 174 521 l 174 608 z "},"¿":{"ha":781,"x_min":0,"x_max":608,"o":"m 174 868 l 347 868 l 347 694 l 174 694 l 174 868 m 174 608 l 347 608 l 347 434 l 260 434 l 260 347 l 174 347 l 174 87 l 434 87 l 434 260 l 608 260 l 608 87 l 521 87 l 521 0 l 87 0 l 87 87 l 0 87 l 0 347 l 87 347 l 87 434 l 174 434 l 174 608 z "},"¬":{"ha":781,"x_min":0,"x_max":608,"o":"m 0 521 l 608 521 l 608 87 l 434 87 l 434 434 l 0 434 l 0 521 z "},"¡":{"ha":781,"x_min":174,"x_max":521,"o":"m 260 868 l 434 868 l 434 694 l 260 694 l 260 868 m 174 347 l 260 347 l 260 608 l 434 608 l 434 347 l 521 347 l 521 87 l 434 87 l 434 0 l 260 0 l 260 87 l 174 87 l 174 347 z "},"«":{"ha":781,"x_min":0,"x_max":608,"o":"m 347 521 l 434 521 l 434 608 l 608 608 l 608 521 l 521 521 l 521 434 l 434 434 l 434 347 l 521 347 l 521 260 l 608 260 l 608 174 l 434 174 l 434 260 l 348 260 l 347 261 l 347 347 l 261 347 l 260 348 l 260 434 l 347 434 l 347 521 m 347 522 l 347 521 l 260 521 l 260 434 l 174 434 l 174 347 l 260 347 l 260 260 l 347 260 l 347 174 l 174 174 l 174 260 l 87 260 l 87 347 l 0 347 l 0 434 l 87 434 l 87 521 l 174 521 l 174 608 l 347 608 l 347 522 z "},"»":{"ha":781,"x_min":0,"x_max":608,"o":"m 260 608 l 434 608 l 434 521 l 521 521 l 521 434 l 608 434 l 608 347 l 521 347 l 521 260 l 434 260 l 434 174 l 260 174 l 260 260 l 347 260 l 347 347 l 434 347 l 434 434 l 347 434 l 347 521 l 261 521 l 260 522 l 260 608 m 260 434 l 347 434 l 347 348 l 347 347 l 260 347 l 260 261 l 260 260 l 174 260 l 174 174 l 0 174 l 0 260 l 87 260 l 87 347 l 174 347 l 174 434 l 87 434 l 87 521 l 0 521 l 0 608 l 174 608 l 174 521 l 260 521 l 260 434 z "},"ß":{"ha":781,"x_min":0,"x_max":608,"o":"m 347 87 l 434 87 l 434 347 l 347 347 l 347 434 l 260 434 l 260 521 l 347 521 l 347 781 l 174 781 l 174 0 l 0 0 l 0 781 l 87 781 l 87 868 l 434 868 l 434 781 l 521 781 l 521 521 l 434 521 l 434 434 l 521 434 l 521 347 l 608 347 l 608 87 l 521 87 l 521 0 l 347 0 l 347 87 z "},"π":{"ha":781,"x_min":0,"x_max":608,"o":"m 347 521 l 260 521 l 260 0 l 87 0 l 87 521 l 0 521 l 0 608 l 608 608 l 608 521 l 521 521 l 521 0 l 347 0 l 347 521 z "},"µ":{"ha":781,"x_min":0,"x_max":608,"o":"m 0 -174 l 87 -174 l 87 608 l 260 608 l 260 87 l 434 87 l 434 608 l 608 608 l 608 87 l 521 87 l 521 0 l 260 0 l 260 -174 l 174 -174 l 174 -260 l 0 -260 l 0 -174 z "},"∞":{"ha":781,"x_min":0,"x_max":781,"o":"m 260 521 l 174 521 l 174 260 l 260 260 l 260 521 m 521 521 l 434 521 l 434 260 l 521 260 l 521 521 m 608 174 l 87 174 l 87 260 l 0 260 l 0 521 l 87 521 l 87 608 l 608 608 l 608 521 l 781 521 l 781 260 l 608 260 l 608 174 z "},"±":{"ha":781,"x_min":87,"x_max":608,"o":"m 87 87 l 608 87 l 608 0 l 87 0 l 87 87 m 87 521 l 260 521 l 260 694 l 434 694 l 434 521 l 608 521 l 608 434 l 434 434 l 434 260 l 260 260 l 260 434 l 87 434 l 87 521 z "},"≥":{"ha":781,"x_min":87,"x_max":608,"o":"m 87 87 l 608 87 l 608 0 l 87 0 l 87 87 m 174 781 l 347 781 l 347 694 l 434 694 l 434 608 l 521 608 l 521 521 l 608 521 l 608 434 l 521 434 l 521 347 l 434 347 l 434 260 l 347 260 l 347 174 l 174 174 l 174 260 l 260 260 l 260 347 l 347 347 l 347 434 l 434 434 l 434 521 l 347 521 l 347 608 l 260 608 l 260 694 l 174 694 l 174 781 z "},"≤":{"ha":781,"x_min":87,"x_max":608,"o":"m 87 87 l 608 87 l 608 0 l 87 0 l 87 87 m 347 781 l 521 781 l 521 694 l 434 694 l 434 608 l 347 608 l 347 521 l 260 521 l 260 434 l 347 434 l 347 347 l 434 347 l 434 260 l 521 260 l 521 174 l 347 174 l 347 260 l 260 260 l 260 347 l 174 347 l 174 434 l 87 434 l 87 521 l 174 521 l 174 608 l 260 608 l 260 694 l 347 694 l 347 781 z "},"÷":{"ha":781,"x_min":87,"x_max":608,"o":"m 260 260 l 434 260 l 434 174 l 260 174 l 260 260 m 260 608 l 434 608 l 434 521 l 260 521 l 260 608 m 87 434 l 608 434 l 608 347 l 87 347 l 87 434 z "},"≈":{"ha":781,"x_min":0,"x_max":608,"o":"m 434 608 l 608 608 l 608 521 l 521 521 l 521 434 l 260 434 l 260 521 l 174 521 l 174 434 l 0 434 l 0 521 l 87 521 l 87 608 l 347 608 l 347 521 l 434 521 l 434 608 m 434 347 l 608 347 l 608 260 l 521 260 l 521 174 l 260 174 l 260 260 l 174 260 l 174 174 l 0 174 l 0 260 l 87 260 l 87 347 l 347 347 l 347 260 l 434 260 l 434 347 z "},"°":{"ha":781,"x_min":87,"x_max":521,"o":"m 347 868 l 260 868 l 260 694 l 347 694 l 347 868 m 174 694 l 87 694 l 87 868 l 174 868 l 174 955 l 434 955 l 434 868 l 521 868 l 521 694 l 434 694 l 434 608 l 174 608 l 174 694 z "},"·":{"ha":781,"x_min":260,"x_max":434,"o":"m 260 434 l 434 434 l 434 347 l 260 347 l 260 434 z "},"√":{"ha":781,"x_min":0,"x_max":694,"o":"m 0 434 l 260 434 l 260 174 l 347 174 l 347 955 l 694 955 l 694 868 l 521 868 l 521 0 l 260 0 l 260 87 l 174 87 l 174 174 l 87 174 l 87 347 l 0 347 l 0 434 z "},"█":{"ha":781,"x_min":0,"x_max":781,"o":"m 0 1042 l 781 1042 l 781 -347 l 0 -347 l 0 1042 z "},"▄":{"ha":781,"x_min":0,"x_max":781,"o":"m 0 434 l 781 434 l 781 -347 l 0 -347 l 0 434 z "},"▌":{"ha":781,"x_min":0,"x_max":347,"o":"m 0 1042 l 347 1042 l 347 -347 l 0 -347 l 0 1042 z "},"▐":{"ha":781,"x_min":347,"x_max":781,"o":"m 347 1042 l 781 1042 l 781 -347 l 347 -347 l 347 1042 z "},"▀":{"ha":781,"x_min":0,"x_max":781,"o":"m 0 1042 l 781 1042 l 781 434 l 0 434 l 0 1042 z "},"░":{"ha":781,"x_min":87,"x_max":694,"o":"m 608 0 l 694 0 l 694 -87 l 608 -87 l 608 0 m 608 347 l 694 347 l 694 260 l 608 260 l 608 347 m 608 694 l 694 694 l 694 608 l 608 608 l 608 694 m 608 868 l 694 868 l 694 781 l 608 781 l 608 868 m 608 521 l 694 521 l 694 434 l 608 434 l 608 521 m 608 174 l 694 174 l 694 87 l 608 87 l 608 174 m 608 -174 l 694 -174 l 694 -260 l 608 -260 l 608 -174 m 608 1042 l 694 1042 l 694 955 l 608 955 l 608 1042 m 434 -87 l 521 -87 l 521 -174 l 434 -174 l 434 -87 m 434 260 l 521 260 l 521 174 l 434 174 l 434 260 m 434 608 l 521 608 l 521 521 l 434 521 l 434 608 m 434 781 l 521 781 l 521 694 l 434 694 l 434 781 m 434 434 l 521 434 l 521 347 l 434 347 l 434 434 m 434 87 l 521 87 l 521 0 l 434 0 l 434 87 m 434 -260 l 521 -260 l 521 -347 l 434 -347 l 434 -260 m 434 955 l 521 955 l 521 868 l 434 868 l 434 955 m 260 0 l 347 0 l 347 -87 l 260 -87 l 260 0 m 260 347 l 347 347 l 347 260 l 260 260 l 260 347 m 260 694 l 347 694 l 347 608 l 260 608 l 260 694 m 260 868 l 347 868 l 347 781 l 260 781 l 260 868 m 260 521 l 347 521 l 347 434 l 260 434 l 260 521 m 260 174 l 347 174 l 347 87 l 260 87 l 260 174 m 260 -174 l 347 -174 l 347 -260 l 260 -260 l 260 -174 m 260 1042 l 347 1042 l 347 955 l 260 955 l 260 1042 m 87 -87 l 174 -87 l 174 -174 l 87 -174 l 87 -87 m 87 260 l 174 260 l 174 174 l 87 174 l 87 260 m 87 608 l 174 608 l 174 521 l 87 521 l 87 608 m 87 781 l 174 781 l 174 694 l 87 694 l 87 781 m 87 434 l 174 434 l 174 347 l 87 347 l 87 434 m 87 87 l 174 87 l 174 0 l 87 0 l 87 87 m 87 -260 l 174 -260 l 174 -347 l 87 -347 l 87 -260 m 87 955 l 174 955 l 174 868 l 87 868 l 87 955 z "},"▒":{"ha":781,"x_min":0,"x_max":695,"o":"m 522 -260 l 608 -260 l 608 -261 l 608 -347 l 522 -347 l 522 -260 m 608 -174 l 694 -174 l 695 -174 l 694 -260 l 608 -260 l 608 -174 m 348 -260 l 434 -260 l 435 -261 l 435 -347 l 348 -347 l 348 -260 m 435 -174 l 521 -174 l 522 -174 l 521 -260 l 435 -260 l 435 -174 m 174 -260 l 260 -260 l 261 -261 l 261 -347 l 174 -347 l 174 -260 m 261 -174 l 347 -174 l 348 -174 l 347 -260 l 261 -260 l 261 -174 m 0 -260 l 86 -260 l 87 -261 l 87 -347 l 0 -347 l 0 -260 m 87 -174 l 173 -174 l 174 -174 l 173 -260 l 87 -260 l 87 -174 m 522 -87 l 608 -87 l 608 -87 l 608 -174 l 522 -174 l 522 -87 m 608 0 l 694 0 l 695 -1 l 694 -87 l 608 -87 l 608 0 m 348 -87 l 434 -87 l 435 -87 l 435 -174 l 348 -174 l 348 -87 m 435 0 l 521 0 l 522 -1 l 521 -87 l 435 -87 l 435 0 m 174 -87 l 260 -87 l 261 -87 l 261 -174 l 174 -174 l 174 -87 m 261 0 l 347 0 l 348 -1 l 347 -87 l 261 -87 l 261 0 m 0 -87 l 86 -87 l 87 -87 l 87 -174 l 0 -174 l 0 -87 m 87 0 l 173 0 l 174 -1 l 173 -87 l 87 -87 l 87 0 m 522 87 l 608 87 l 608 86 l 608 0 l 522 0 l 522 87 m 608 174 l 694 174 l 695 173 l 694 87 l 608 87 l 608 174 m 348 87 l 434 87 l 435 86 l 435 0 l 348 0 l 348 87 m 435 174 l 521 174 l 522 173 l 521 87 l 435 87 l 435 174 m 174 87 l 260 87 l 261 86 l 261 0 l 174 0 l 174 87 m 261 174 l 347 174 l 348 173 l 347 87 l 261 87 l 261 174 m 0 87 l 86 87 l 87 86 l 87 0 l 0 0 l 0 87 m 87 174 l 173 174 l 174 173 l 173 87 l 87 87 l 87 174 m 522 260 l 608 260 l 608 260 l 608 174 l 522 174 l 522 260 m 608 347 l 694 347 l 695 347 l 694 260 l 608 260 l 608 347 m 348 260 l 434 260 l 435 260 l 435 174 l 348 174 l 348 260 m 435 347 l 521 347 l 522 347 l 521 260 l 435 260 l 435 347 m 174 260 l 260 260 l 261 260 l 261 174 l 174 174 l 174 260 m 261 347 l 347 347 l 348 347 l 347 260 l 261 260 l 261 347 m 0 260 l 86 260 l 87 260 l 87 174 l 0 174 l 0 260 m 87 347 l 173 347 l 174 347 l 173 260 l 87 260 l 87 347 m 522 434 l 608 434 l 608 433 l 608 347 l 522 347 l 522 434 m 608 521 l 694 521 l 695 520 l 694 434 l 608 434 l 608 521 m 348 434 l 434 434 l 435 433 l 435 347 l 348 347 l 348 434 m 435 521 l 521 521 l 522 520 l 521 434 l 435 434 l 435 521 m 174 434 l 260 434 l 261 433 l 261 347 l 174 347 l 174 434 m 261 521 l 347 521 l 348 520 l 347 434 l 261 434 l 261 521 m 0 434 l 86 434 l 87 433 l 87 347 l 0 347 l 0 434 m 87 521 l 173 521 l 174 520 l 173 434 l 87 434 l 87 521 m 522 608 l 608 608 l 608 607 l 608 521 l 522 521 l 522 608 m 608 694 l 694 694 l 695 694 l 694 608 l 608 608 l 608 694 m 348 608 l 434 608 l 435 607 l 435 521 l 348 521 l 348 608 m 435 694 l 521 694 l 522 694 l 521 608 l 435 608 l 435 694 m 174 608 l 260 608 l 261 607 l 261 521 l 174 521 l 174 608 m 261 694 l 347 694 l 348 694 l 347 608 l 261 608 l 261 694 m 0 608 l 86 608 l 87 607 l 87 521 l 0 521 l 0 608 m 87 694 l 173 694 l 174 694 l 173 608 l 87 608 l 87 694 m 522 781 l 608 781 l 608 781 l 608 694 l 522 694 l 522 781 m 608 868 l 694 868 l 695 867 l 694 781 l 608 781 l 608 868 m 348 781 l 434 781 l 435 781 l 435 694 l 348 694 l 348 781 m 435 868 l 521 868 l 522 867 l 521 781 l 435 781 l 435 868 m 174 781 l 260 781 l 261 781 l 261 694 l 174 694 l 174 781 m 261 868 l 347 868 l 348 867 l 347 781 l 261 781 l 261 868 m 0 781 l 86 781 l 87 781 l 87 694 l 0 694 l 0 781 m 87 868 l 173 868 l 174 867 l 173 781 l 87 781 l 87 868 m 521 955 l 607 955 l 608 954 l 608 868 l 521 868 l 521 955 m 608 1042 l 694 1042 l 694 955 l 608 955 l 608 1042 m 347 955 l 433 955 l 434 954 l 434 868 l 347 868 l 347 955 m 434 1042 l 521 1042 l 521 955 l 434 955 l 434 1042 m 174 955 l 260 955 l 260 954 l 260 868 l 174 868 l 174 955 m 260 1042 l 347 1042 l 347 955 l 260 955 l 260 1042 m 0 955 l 86 955 l 87 954 l 87 868 l 0 868 l 0 955 m 87 1042 l 174 1042 l 174 955 l 87 955 l 87 1042 z "},"▓":{"ha":781,"x_min":0,"x_max":694,"o":"m 608 781 l 608 868 l 521 868 l 521 781 l 608 781 m 608 434 l 608 521 l 521 521 l 521 434 l 608 434 m 608 87 l 608 174 l 521 174 l 521 87 l 608 87 m 608 -260 l 608 -174 l 521 -174 l 521 -260 l 608 -260 m 434 -174 l 434 -87 l 347 -87 l 347 -174 l 434 -174 m 434 174 l 434 260 l 347 260 l 347 174 l 434 174 m 434 521 l 434 608 l 347 608 l 347 521 l 434 521 m 434 868 l 434 955 l 347 955 l 347 868 l 434 868 m 260 260 l 260 347 l 174 347 l 174 260 l 260 260 m 260 -87 l 260 0 l 174 0 l 174 -87 l 260 -87 m 260 608 l 260 694 l 174 694 l 174 608 l 260 608 m 260 781 l 260 868 l 174 868 l 174 781 l 260 781 m 260 -260 l 260 -174 l 174 -174 l 174 -260 l 260 -260 m 260 87 l 260 174 l 174 174 l 174 87 l 260 87 m 260 434 l 260 521 l 174 521 l 174 434 l 260 434 m 434 694 l 434 781 l 347 781 l 347 694 l 434 694 m 434 347 l 434 434 l 347 434 l 347 347 l 434 347 m 434 0 l 434 87 l 347 87 l 347 0 l 434 0 m 608 -87 l 608 0 l 521 0 l 521 -87 l 608 -87 m 608 260 l 608 347 l 521 347 l 521 260 l 608 260 m 608 608 l 608 694 l 521 694 l 521 608 l 608 608 m 608 955 l 608 1042 l 694 1042 l 694 -347 l 434 -347 l 434 -260 l 347 -260 l 347 -347 l 87 -347 l 87 -260 l 0 -260 l 0 -174 l 87 -174 l 87 -87 l 0 -87 l 0 0 l 87 0 l 87 87 l 0 87 l 0 174 l 87 174 l 87 260 l 0 260 l 0 347 l 87 347 l 87 434 l 0 434 l 0 521 l 87 521 l 87 608 l 0 608 l 0 694 l 87 694 l 87 781 l 0 781 l 0 868 l 87 868 l 87 955 l 0 955 l 0 1042 l 174 1042 l 174 955 l 260 955 l 260 1042 l 521 1042 l 521 955 l 608 955 z "},"■":{"ha":781,"x_min":87,"x_max":608,"o":"m 87 694 l 608 694 l 608 87 l 87 87 l 87 694 z "},"─":{"ha":781,"x_min":0,"x_max":781,"o":"m 0 434 l 781 434 l 781 347 l 0 347 l 0 434 z "},"₧":{"ha":781,"x_min":0,"x_max":608,"o":"m 347 868 l 174 868 l 174 694 l 347 694 l 347 868 m 260 434 l 347 434 l 347 521 l 434 521 l 434 608 l 174 608 l 174 0 l 0 0 l 0 955 l 434 955 l 434 868 l 521 868 l 521 694 l 434 694 l 434 608 l 521 608 l 521 434 l 608 434 l 608 347 l 521 347 l 521 87 l 608 87 l 608 0 l 434 0 l 434 87 l 347 87 l 347 347 l 260 347 l 260 434 z "},"⌐":{"ha":781,"x_min":0,"x_max":608,"o":"m 174 87 l 0 87 l 0 521 l 608 521 l 608 434 l 174 434 l 174 87 z "},"½":{"ha":781,"x_min":0,"x_max":608,"o":"m 174 -87 l 260 -87 l 260 0 l 347 0 l 347 87 l 434 87 l 434 174 l 260 174 l 260 260 l 174 260 l 174 174 l 87 174 l 87 87 l 0 87 l 0 260 l 87 260 l 87 347 l 174 347 l 174 434 l 260 434 l 260 521 l 87 521 l 87 781 l 0 781 l 0 868 l 87 868 l 87 955 l 260 955 l 260 521 l 347 521 l 347 608 l 434 608 l 434 694 l 521 694 l 521 781 l 608 781 l 608 608 l 521 608 l 521 521 l 434 521 l 434 434 l 347 434 l 347 347 l 260 347 l 260 260 l 521 260 l 521 174 l 608 174 l 608 87 l 521 87 l 521 0 l 434 0 l 434 -87 l 608 -87 l 608 -174 l 174 -174 l 174 -87 z "},"¼":{"ha":781,"x_min":0,"x_max":694,"o":"m 521 87 l 521 174 l 434 174 l 434 87 l 521 87 m 608 -174 l 434 -174 l 434 0 l 174 0 l 174 87 l 260 87 l 260 174 l 347 174 l 347 260 l 434 260 l 434 347 l 608 347 l 608 87 l 694 87 l 694 0 l 608 0 l 608 -174 m 260 260 l 174 260 l 174 174 l 87 174 l 87 87 l 0 87 l 0 260 l 87 260 l 87 347 l 174 347 l 174 434 l 260 434 l 260 521 l 87 521 l 87 781 l 0 781 l 0 868 l 87 868 l 87 955 l 260 955 l 260 521 l 347 521 l 347 608 l 434 608 l 434 694 l 521 694 l 521 781 l 608 781 l 608 608 l 521 608 l 521 521 l 434 521 l 434 434 l 347 434 l 347 347 l 260 347 l 260 260 z "},"│":{"ha":781,"x_min":260,"x_max":434,"o":"m 260 1042 l 434 1042 l 434 -347 l 260 -347 l 260 1042 z "},"┤":{"ha":781,"x_min":0,"x_max":434,"o":"m 0 434 l 260 434 l 260 1042 l 434 1042 l 434 -347 l 260 -347 l 260 347 l 0 347 l 0 434 z "},"╡":{"ha":781,"x_min":0,"x_max":434,"o":"m 0 608 l 260 608 l 260 1042 l 434 1042 l 434 -347 l 260 -347 l 260 347 l 0 347 l 0 434 l 260 434 l 260 521 l 0 521 l 0 608 z "},"╢":{"ha":781,"x_min":0,"x_max":608,"o":"m 434 1042 l 608 1042 l 608 -347 l 434 -347 l 434 1042 m 0 434 l 174 434 l 174 1042 l 347 1042 l 347 -347 l 174 -347 l 174 347 l 0 347 l 0 434 z "},"╖":{"ha":781,"x_min":0,"x_max":608,"o":"m 434 347 l 347 347 l 347 -347 l 174 -347 l 174 347 l 0 347 l 0 434 l 608 434 l 608 -347 l 434 -347 l 434 347 z "},"╕":{"ha":781,"x_min":0,"x_max":434,"o":"m 0 608 l 434 608 l 434 -347 l 260 -347 l 260 347 l 0 347 l 0 434 l 260 434 l 260 521 l 0 521 l 0 608 z "},"╣":{"ha":781,"x_min":0,"x_max":608,"o":"m 0 608 l 174 608 l 174 1042 l 347 1042 l 347 521 l 0 521 l 0 608 m 0 434 l 347 434 l 347 -347 l 174 -347 l 174 347 l 0 347 l 0 434 m 434 1042 l 608 1042 l 608 -347 l 434 -347 l 434 1042 z "},"║":{"ha":781,"x_min":174,"x_max":608,"o":"m 434 1042 l 608 1042 l 608 -347 l 434 -347 l 434 1042 m 174 1042 l 347 1042 l 347 -347 l 174 -347 l 174 1042 z "},"╗":{"ha":781,"x_min":0,"x_max":608,"o":"m 0 434 l 347 434 l 347 -347 l 174 -347 l 174 347 l 0 347 l 0 434 m 0 608 l 608 608 l 608 -347 l 434 -347 l 434 521 l 0 521 l 0 608 z "},"╝":{"ha":781,"x_min":0,"x_max":608,"o":"m 0 608 l 174 608 l 174 1042 l 347 1042 l 347 521 l 0 521 l 0 608 m 0 434 l 434 434 l 434 1042 l 608 1042 l 608 347 l 0 347 l 0 434 z "},"╜":{"ha":781,"x_min":0,"x_max":608,"o":"m 0 434 l 174 434 l 174 1042 l 347 1042 l 347 434 l 434 434 l 434 1042 l 608 1042 l 608 347 l 0 347 l 0 434 z "},"╛":{"ha":781,"x_min":0,"x_max":434,"o":"m 0 608 l 260 608 l 260 1042 l 434 1042 l 434 347 l 0 347 l 0 434 l 260 434 l 260 521 l 0 521 l 0 608 z "},"┼":{"ha":781,"x_min":0,"x_max":781,"o":"m 0 434 l 260 434 l 260 1042 l 434 1042 l 434 434 l 781 434 l 781 347 l 434 347 l 434 -347 l 260 -347 l 260 347 l 0 347 l 0 434 z "},"╞":{"ha":781,"x_min":260,"x_max":781,"o":"m 434 434 l 781 434 l 781 347 l 434 347 l 434 -347 l 260 -347 l 260 1042 l 434 1042 l 434 608 l 781 608 l 781 521 l 434 521 l 434 434 z "},"╟":{"ha":781,"x_min":174,"x_max":781,"o":"m 174 1042 l 347 1042 l 347 -347 l 174 -347 l 174 1042 m 608 -347 l 434 -347 l 434 1042 l 608 1042 l 608 434 l 781 434 l 781 347 l 608 347 l 608 -347 z "},"╚":{"ha":781,"x_min":174,"x_max":781,"o":"m 434 1042 l 608 1042 l 608 608 l 781 608 l 781 521 l 434 521 l 434 1042 m 174 1042 l 347 1042 l 347 434 l 781 434 l 781 347 l 174 347 l 174 1042 z "},"╔":{"ha":781,"x_min":174,"x_max":781,"o":"m 434 0 l 434 434 l 781 434 l 781 347 l 608 347 l 608 -347 l 434 -347 l 434 0 m 174 608 l 781 608 l 781 521 l 347 521 l 347 -347 l 174 -347 l 174 608 z "},"╩":{"ha":781,"x_min":0,"x_max":781,"o":"m 0 434 l 781 434 l 781 347 l 0 347 l 0 434 m 608 1042 l 608 608 l 781 608 l 781 521 l 434 521 l 434 1042 l 608 1042 m 174 1042 l 347 1042 l 347 521 l 0 521 l 0 608 l 174 608 l 174 1042 z "},"╦":{"ha":781,"x_min":0,"x_max":781,"o":"m 0 608 l 781 608 l 781 521 l 0 521 l 0 608 m 434 434 l 781 434 l 781 347 l 608 347 l 608 -347 l 434 -347 l 434 434 m 0 434 l 347 434 l 347 -347 l 174 -347 l 174 347 l 0 347 l 0 434 z "},"╠":{"ha":781,"x_min":174,"x_max":781,"o":"m 434 1042 l 608 1042 l 608 608 l 781 608 l 781 521 l 434 521 l 434 1042 m 434 434 l 781 434 l 781 347 l 608 347 l 608 -347 l 434 -347 l 434 434 m 174 1042 l 347 1042 l 347 -347 l 174 -347 l 174 1042 z "},"═":{"ha":781,"x_min":0,"x_max":781,"o":"m 0 434 l 781 434 l 781 347 l 0 347 l 0 434 m 0 608 l 781 608 l 781 521 l 0 521 l 0 608 z "},"╬":{"ha":781,"x_min":0,"x_max":781,"o":"m 0 608 l 174 608 l 174 1042 l 347 1042 l 347 521 l 0 521 l 0 608 m 434 1042 l 608 1042 l 608 608 l 781 608 l 781 521 l 434 521 l 434 1042 m 781 434 l 781 347 l 608 347 l 608 -347 l 434 -347 l 434 434 l 781 434 m 0 434 l 347 434 l 347 -347 l 174 -347 l 174 347 l 0 347 l 0 434 z "},"╧":{"ha":781,"x_min":0,"x_max":781,"o":"m 0 434 l 781 434 l 781 347 l 0 347 l 0 434 m 0 608 l 260 608 l 260 868 l 434 868 l 434 608 l 781 608 l 781 521 l 0 521 l 0 608 z "},"╨":{"ha":781,"x_min":0,"x_max":781,"o":"m 0 434 l 174 434 l 174 1042 l 347 1042 l 347 434 l 434 434 l 434 1042 l 608 1042 l 608 434 l 781 434 l 781 347 l 0 347 l 0 434 z "},"┐":{"ha":781,"x_min":0,"x_max":434,"o":"m 0 434 l 434 434 l 434 -347 l 260 -347 l 260 347 l 0 347 l 0 434 z "},"└":{"ha":781,"x_min":260,"x_max":781,"o":"m 260 1042 l 434 1042 l 434 434 l 781 434 l 781 347 l 260 347 l 260 1042 z "},"┴":{"ha":781,"x_min":0,"x_max":781,"o":"m 0 434 l 260 434 l 260 1042 l 434 1042 l 434 434 l 781 434 l 781 347 l 0 347 l 0 434 z "},"┬":{"ha":781,"x_min":0,"x_max":781,"o":"m 0 434 l 781 434 l 781 347 l 434 347 l 434 -347 l 260 -347 l 260 347 l 0 347 l 0 434 z "},"├":{"ha":781,"x_min":260,"x_max":781,"o":"m 434 -347 l 260 -347 l 260 1042 l 434 1042 l 434 434 l 781 434 l 781 347 l 434 347 l 434 -347 z "},"╤":{"ha":781,"x_min":0,"x_max":781,"o":"m 0 608 l 781 608 l 781 521 l 0 521 l 0 608 m 0 434 l 781 434 l 781 347 l 434 347 l 434 -347 l 260 -347 l 260 347 l 0 347 l 0 434 z "},"╥":{"ha":781,"x_min":0,"x_max":781,"o":"m 434 347 l 347 347 l 347 -347 l 174 -347 l 174 347 l 0 347 l 0 434 l 781 434 l 781 347 l 608 347 l 608 -347 l 434 -347 l 434 347 z "},"╙":{"ha":781,"x_min":174,"x_max":781,"o":"m 174 1042 l 347 1042 l 347 434 l 434 434 l 434 1042 l 608 1042 l 608 434 l 781 434 l 781 347 l 174 347 l 174 1042 z "},"╘":{"ha":781,"x_min":260,"x_max":781,"o":"m 260 1042 l 434 1042 l 434 608 l 781 608 l 781 521 l 434 521 l 434 434 l 781 434 l 781 347 l 260 347 l 260 1042 z "},"╒":{"ha":781,"x_min":260,"x_max":781,"o":"m 781 608 l 781 521 l 434 521 l 434 434 l 781 434 l 781 347 l 434 347 l 434 -347 l 260 -347 l 260 608 l 781 608 z "},"╓":{"ha":781,"x_min":174,"x_max":781,"o":"m 434 347 l 347 347 l 347 -347 l 174 -347 l 174 434 l 781 434 l 781 347 l 608 347 l 608 -347 l 434 -347 l 434 347 z "},"╫":{"ha":781,"x_min":0,"x_max":781,"o":"m 434 347 l 347 347 l 347 -347 l 174 -347 l 174 347 l 0 347 l 0 434 l 174 434 l 174 1042 l 347 1042 l 347 434 l 434 434 l 434 1042 l 608 1042 l 608 434 l 781 434 l 781 347 l 608 347 l 608 -347 l 434 -347 l 434 347 z "},"╪":{"ha":781,"x_min":0,"x_max":781,"o":"m 0 608 l 260 608 l 260 1042 l 434 1042 l 434 608 l 781 608 l 781 521 l 434 521 l 434 434 l 781 434 l 781 347 l 434 347 l 434 -347 l 260 -347 l 260 347 l 0 347 l 0 434 l 260 434 l 260 521 l 0 521 l 0 608 z "},"┘":{"ha":781,"x_min":0,"x_max":434,"o":"m 0 434 l 260 434 l 260 1042 l 434 1042 l 434 347 l 0 347 l 0 434 z "},"┌":{"ha":781,"x_min":260,"x_max":781,"o":"m 260 434 l 781 434 l 781 347 l 434 347 l 434 -347 l 260 -347 l 260 434 z "},"α":{"ha":781,"x_min":0,"x_max":608,"o":"m 260 521 l 174 521 l 174 87 l 260 87 l 260 521 m 434 87 l 347 87 l 347 0 l 87 0 l 87 87 l 0 87 l 0 521 l 87 521 l 87 608 l 347 608 l 347 521 l 434 521 l 434 608 l 608 608 l 608 521 l 521 521 l 521 434 l 434 434 l 434 174 l 521 174 l 521 87 l 608 87 l 608 0 l 434 0 l 434 87 z "},"Γ":{"ha":781,"x_min":0,"x_max":608,"o":"m 174 0 l 0 0 l 0 868 l 608 868 l 608 608 l 434 608 l 434 781 l 174 781 l 174 0 z "},"Σ":{"ha":781,"x_min":0,"x_max":608,"o":"m 0 174 l 87 174 l 87 260 l 174 260 l 174 347 l 260 347 l 260 521 l 174 521 l 174 608 l 87 608 l 87 694 l 0 694 l 0 868 l 608 868 l 608 694 l 434 694 l 434 781 l 174 781 l 174 694 l 260 694 l 260 608 l 347 608 l 347 521 l 434 521 l 434 347 l 347 347 l 347 260 l 260 260 l 260 174 l 174 174 l 174 87 l 434 87 l 434 174 l 608 174 l 608 0 l 0 0 l 0 174 z "},"σ":{"ha":781,"x_min":0,"x_max":608,"o":"m 260 521 l 174 521 l 174 87 l 260 87 l 260 521 m 0 521 l 87 521 l 87 608 l 608 608 l 608 521 l 434 521 l 434 87 l 347 87 l 347 0 l 87 0 l 87 87 l 0 87 l 0 521 z "},"τ":{"ha":781,"x_min":0,"x_max":608,"o":"m 260 608 l 174 608 l 174 521 l 0 521 l 0 608 l 87 608 l 87 694 l 347 694 l 347 608 l 434 608 l 434 694 l 608 694 l 608 608 l 521 608 l 521 521 l 434 521 l 434 0 l 260 0 l 260 608 z "},"Φ":{"ha":781,"x_min":87,"x_max":608,"o":"m 434 608 l 260 608 l 260 260 l 434 260 l 434 608 m 87 608 l 174 608 l 174 694 l 260 694 l 260 781 l 87 781 l 87 868 l 608 868 l 608 781 l 434 781 l 434 694 l 521 694 l 521 608 l 608 608 l 608 260 l 521 260 l 521 174 l 434 174 l 434 87 l 608 87 l 608 0 l 87 0 l 87 87 l 260 87 l 260 174 l 174 174 l 174 260 l 87 260 l 87 608 z "},"Θ":{"ha":781,"x_min":0,"x_max":608,"o":"m 174 521 l 434 521 l 434 694 l 347 694 l 347 781 l 260 781 l 260 694 l 174 694 l 174 521 m 174 174 l 260 174 l 260 87 l 347 87 l 347 174 l 434 174 l 434 434 l 174 434 l 174 174 m 174 87 l 87 87 l 87 174 l 0 174 l 0 694 l 87 694 l 87 781 l 174 781 l 174 868 l 434 868 l 434 781 l 521 781 l 521 694 l 608 694 l 608 174 l 521 174 l 521 87 l 434 87 l 434 0 l 174 0 l 174 87 z "},"Ω":{"ha":781,"x_min":0,"x_max":608,"o":"m 347 781 l 260 781 l 260 694 l 174 694 l 174 434 l 260 434 l 260 0 l 0 0 l 0 87 l 87 87 l 87 434 l 0 434 l 0 694 l 87 694 l 87 781 l 174 781 l 174 868 l 434 868 l 434 781 l 521 781 l 521 694 l 608 694 l 608 434 l 521 434 l 521 87 l 608 87 l 608 0 l 347 0 l 347 434 l 434 434 l 434 694 l 347 694 l 347 781 z "},"δ":{"ha":781,"x_min":87,"x_max":608,"o":"m 434 434 l 260 434 l 260 87 l 434 87 l 434 434 m 260 868 l 608 868 l 608 781 l 347 781 l 347 694 l 434 694 l 434 608 l 521 608 l 521 521 l 608 521 l 608 87 l 521 87 l 521 0 l 174 0 l 174 87 l 87 87 l 87 434 l 174 434 l 174 521 l 347 521 l 347 608 l 260 608 l 260 694 l 174 694 l 174 781 l 260 781 l 260 868 z "},"φ":{"ha":781,"x_min":0,"x_max":781,"o":"m 260 521 l 174 521 l 174 347 l 260 347 l 260 521 m 521 521 l 434 521 l 434 347 l 347 347 l 347 260 l 521 260 l 521 521 m 608 260 l 608 174 l 260 174 l 260 87 l 174 87 l 174 0 l 0 0 l 0 87 l 87 87 l 87 260 l 0 260 l 0 521 l 87 521 l 87 608 l 434 608 l 434 694 l 521 694 l 521 781 l 781 781 l 781 694 l 608 694 l 608 521 l 781 521 l 781 260 l 608 260 z "},"ε":{"ha":781,"x_min":87,"x_max":521,"o":"m 260 174 l 347 174 l 347 87 l 521 87 l 521 0 l 260 0 l 260 87 l 174 87 l 174 174 l 87 174 l 87 694 l 174 694 l 174 781 l 260 781 l 260 868 l 521 868 l 521 781 l 347 781 l 347 694 l 260 694 l 260 521 l 521 521 l 521 434 l 260 434 l 260 174 z "},"∩":{"ha":781,"x_min":0,"x_max":608,"o":"m 434 694 l 174 694 l 174 0 l 0 0 l 0 694 l 87 694 l 87 781 l 521 781 l 521 694 l 608 694 l 608 0 l 434 0 l 434 694 z "},"≡":{"ha":781,"x_min":0,"x_max":608,"o":"m 0 434 l 608 434 l 608 347 l 0 347 l 0 434 m 0 694 l 608 694 l 608 608 l 0 608 l 0 694 m 0 174 l 608 174 l 608 87 l 0 87 l 0 174 z "},"⌠":{"ha":781,"x_min":260,"x_max":694,"o":"m 521 781 l 434 781 l 434 -347 l 260 -347 l 260 781 l 347 781 l 347 868 l 608 868 l 608 781 l 694 781 l 694 608 l 521 608 l 521 781 z "},"⌡":{"ha":781,"x_min":0,"x_max":434,"o":"m 0 174 l 174 174 l 174 0 l 260 0 l 260 1042 l 434 1042 l 434 0 l 347 0 l 347 -87 l 87 -87 l 87 0 l 0 0 l 0 174 z "},"∙":{"ha":781,"x_min":260,"x_max":434,"o":"m 260 434 l 434 434 l 434 260 l 260 260 l 260 434 z "},"ⁿ":{"ha":781,"x_min":87,"x_max":608,"o":"m 347 955 l 521 955 l 521 868 l 608 868 l 608 434 l 434 434 l 434 868 l 347 868 l 347 955 m 174 868 l 87 868 l 87 955 l 260 955 l 260 868 l 347 868 l 347 434 l 174 434 l 174 868 z "},"²":{"ha":781,"x_min":87,"x_max":608,"o":"m 87 521 l 174 521 l 174 608 l 260 608 l 260 694 l 347 694 l 347 781 l 434 781 l 434 868 l 260 868 l 260 781 l 87 781 l 87 868 l 174 868 l 174 955 l 521 955 l 521 868 l 608 868 l 608 781 l 521 781 l 521 694 l 434 694 l 434 608 l 347 608 l 347 521 l 521 521 l 521 608 l 608 608 l 608 434 l 87 434 l 87 521 z "}}}
